<svg xmlns="http://www.w3.org/2000/svg" viewBox="0 0 24 24" width="48" height="48">
  <g fill="none" fill-rule="evenodd">
    <path fill="#36C5F0" d="M5.121 12.242a2.121 2.121 0 1 1-4.242 0 2.121 2.121 0 0 1 2.121-2.121h2.121v2.121zm1.061 0a2.121 2.121 0 0 1 4.242 0v5.303a2.121 2.121 0 1 1-4.242 0v-5.303z"/>
    <path fill="#2EB67D" d="M8.303 5.121a2.121 2.121 0 0 1 0-4.242 2.121 2.121 0 0 1 2.121 2.121v2.121H8.303zm0 1.061a2.121 2.121 0 0 1 0 4.242H2.999a2.121 2.121 0 1 1 0-4.242h5.304z"/>
    <path fill="#ECB22E" d="M15.424 8.303a2.121 2.121 0 1 1 4.242 0 2.121 2.121 0 0 1-2.121 2.121h-2.121V8.303zm-1.061 0a2.121 2.121 0 1 1-4.242 0V2.999a2.121 2.121 0 1 1 4.242 0v5.304z"/>
    <path fill="#E01E5A" d="M12.242 15.424a2.121 2.121 0 0 1 0 4.242 2.121 2.121 0 0 1-2.121-2.121v-2.121h2.121zm0-1.061a2.121 2.121 0 0 1 0-4.242h5.303a2.121 2.121 0 1 1 0 4.242h-5.303z"/>
  </g>
</svg>