<svg xmlns="http://www.w3.org/2000/svg" xmlns:xlink="http://www.w3.org/1999/xlink" contentStyleType="text/css" data-diagram-type="CLASS" height="1056px" preserveAspectRatio="none" style="width:922px;height:1056px;background:#FFFFFF;" version="1.1" viewBox="0 0 922 1056" width="922px" zoomAndPan="magnify"><defs/><g><!--class User--><g class="entity" data-entity="User" data-source-line="3" data-uid="ent0002" id="entity_User"><rect fill="#F1F1F1" height="210.9688" rx="2.5" ry="2.5" style="stroke:#181818;stroke-width:0.5;" width="240.2383" x="7" y="335.71"/><ellipse cx="106.9141" cy="351.71" fill="#ADD1B2" rx="11" ry="11" style="stroke:#181818;stroke-width:1;"/><path d="M109.8828,357.3506 Q109.3047,357.6475 108.6641,357.7881 Q108.0234,357.9444 107.3203,357.9444 Q104.8203,357.9444 103.4922,356.3037 Q102.1797,354.6475 102.1797,351.5225 Q102.1797,348.3975 103.4922,346.7412 Q104.8203,345.085 107.3203,345.085 Q108.0234,345.085 108.6641,345.2412 Q109.3203,345.3975 109.8828,345.6944 L109.8828,348.4131 Q109.2578,347.835 108.6641,347.5694 Q108.0703,347.2881 107.4453,347.2881 Q106.1016,347.2881 105.4141,348.3662 Q104.7266,349.4287 104.7266,351.5225 Q104.7266,353.6162 105.4141,354.6944 Q106.1016,355.7569 107.4453,355.7569 Q108.0703,355.7569 108.6641,355.4912 Q109.2578,355.21 109.8828,354.6319 L109.8828,357.3506 Z " fill="#000000"/><text fill="#000000" font-family="sans-serif" font-size="14" lengthAdjust="spacing" textLength="31.9102" x="127.4141" y="356.5567">User</text><line style="stroke:#181818;stroke-width:0.5;" x1="8" x2="246.2383" y1="367.71" y2="367.71"/><text fill="#000000" font-family="sans-serif" font-size="14" lengthAdjust="spacing" textLength="99.5518" x="13" y="384.7051">-userId: String</text><text fill="#000000" font-family="sans-serif" font-size="14" lengthAdjust="spacing" textLength="95.7031" x="13" y="401.002">-name: String</text><text fill="#000000" font-family="sans-serif" font-size="14" lengthAdjust="spacing" textLength="162.2236" x="13" y="417.2989">-registrationDate: Date</text><text fill="#000000" font-family="sans-serif" font-size="14" lengthAdjust="spacing" textLength="176.9141" x="13" y="433.5957">-maxBorrowLimit: int = 5</text><text fill="#000000" font-family="sans-serif" font-size="14" lengthAdjust="spacing" textLength="124.9268" x="13" y="449.8926">-isActive: boolean</text><line style="stroke:#181818;stroke-width:1;" x1="8" x2="246.2383" y1="457.1944" y2="457.1944"/><text fill="#000000" font-family="sans-serif" font-size="14" lengthAdjust="spacing" textLength="115.7461" x="13" y="474.1895">+register(): void</text><text fill="#000000" font-family="sans-serif" font-size="14" lengthAdjust="spacing" textLength="133.4922" x="13" y="490.4864">+unregister(): void</text><text fill="#000000" font-family="sans-serif" font-size="14" lengthAdjust="spacing" textLength="162.6406" x="13" y="506.7832">+canBorrow(): boolean</text><text fill="#000000" font-family="sans-serif" font-size="14" lengthAdjust="spacing" textLength="217.4717" x="13" y="523.0801">+getCurrentBorrowCount(): int</text><text fill="#000000" font-family="sans-serif" font-size="14" lengthAdjust="spacing" textLength="228.2383" x="13" y="539.377">+isWithinBorrowLimit(): boolean</text></g><!--class Book--><g class="entity" data-entity="Book" data-source-line="17" data-uid="ent0003" id="entity_Book"><rect fill="#F1F1F1" height="259.8594" rx="2.5" ry="2.5" style="stroke:#181818;stroke-width:0.5;" width="234.7764" x="468.73" y="311.26"/><ellipse cx="564.4468" cy="327.26" fill="#ADD1B2" rx="11" ry="11" style="stroke:#181818;stroke-width:1;"/><path d="M567.4155,332.9006 Q566.8374,333.1975 566.1968,333.3381 Q565.5562,333.4944 564.853,333.4944 Q562.353,333.4944 561.0249,331.8538 Q559.7124,330.1975 559.7124,327.0725 Q559.7124,323.9475 561.0249,322.2913 Q562.353,320.635 564.853,320.635 Q565.5562,320.635 566.1968,320.7913 Q566.853,320.9475 567.4155,321.2444 L567.4155,323.9631 Q566.7905,323.385 566.1968,323.1194 Q565.603,322.8381 564.978,322.8381 Q563.6343,322.8381 562.9468,323.9163 Q562.2593,324.9788 562.2593,327.0725 Q562.2593,329.1663 562.9468,330.2444 Q563.6343,331.3069 564.978,331.3069 Q565.603,331.3069 566.1968,331.0413 Q566.7905,330.76 567.4155,330.1819 L567.4155,332.9006 Z " fill="#000000"/><text fill="#000000" font-family="sans-serif" font-size="14" lengthAdjust="spacing" textLength="34.8428" x="584.9468" y="332.1067">Book</text><line style="stroke:#181818;stroke-width:0.5;" x1="469.73" x2="702.5064" y1="343.26" y2="343.26"/><text fill="#000000" font-family="sans-serif" font-size="14" lengthAdjust="spacing" textLength="103.1406" x="474.73" y="360.2551">-bookId: String</text><text fill="#000000" font-family="sans-serif" font-size="14" lengthAdjust="spacing" textLength="84.9434" x="474.73" y="376.552">-isbn: String</text><text fill="#000000" font-family="sans-serif" font-size="14" lengthAdjust="spacing" textLength="83.3711" x="474.73" y="392.8489">-title: String</text><text fill="#000000" font-family="sans-serif" font-size="14" lengthAdjust="spacing" textLength="145.7148" x="474.73" y="409.1457">-purchaseDate: Date</text><text fill="#000000" font-family="sans-serif" font-size="14" lengthAdjust="spacing" textLength="136.6914" x="474.73" y="425.4426">-status: BookStatus</text><text fill="#000000" font-family="sans-serif" font-size="14" lengthAdjust="spacing" textLength="116.293" x="474.73" y="441.7395">-usageCount: int</text><text fill="#000000" font-family="sans-serif" font-size="14" lengthAdjust="spacing" textLength="141.4355" x="474.73" y="458.0364">-lastUsedDate: Date</text><line style="stroke:#181818;stroke-width:1;" x1="469.73" x2="702.5064" y1="465.3381" y2="465.3381"/><text fill="#000000" font-family="sans-serif" font-size="14" lengthAdjust="spacing" textLength="126.0205" x="474.73" y="482.3332">+purchase(): void</text><text fill="#000000" font-family="sans-serif" font-size="14" lengthAdjust="spacing" textLength="112.4375" x="474.73" y="498.6301">+discard(): void</text><text fill="#000000" font-family="sans-serif" font-size="14" lengthAdjust="spacing" textLength="163.167" x="474.73" y="514.927">+isAvailable(): boolean</text><text fill="#000000" font-family="sans-serif" font-size="14" lengthAdjust="spacing" textLength="181.5967" x="474.73" y="531.2239">+markAsBorrowed(): void</text><text fill="#000000" font-family="sans-serif" font-size="14" lengthAdjust="spacing" textLength="179.2314" x="474.73" y="547.5207">+markAsReturned(): void</text><text fill="#000000" font-family="sans-serif" font-size="14" lengthAdjust="spacing" textLength="222.7764" x="474.73" y="563.8176">+shouldBeDiscarded(): boolean</text></g><!--class BookStatus--><g class="entity" data-entity="BookStatus" data-source-line="34" data-uid="ent0004" id="entity_BookStatus"><rect fill="#F1F1F1" height="113.1875" rx="2.5" ry="2.5" style="stroke:#181818;stroke-width:0.5;" width="111.4541" x="300.39" y="936.09"/><ellipse cx="315.39" cy="952.09" fill="#EB937F" rx="11" ry="11" style="stroke:#181818;stroke-width:1;"/><path d="M319.4994,958.09 L311.7806,958.09 L311.7806,945.6994 L319.4994,945.6994 L319.4994,947.8556 L314.2338,947.8556 L314.2338,950.5275 L318.9994,950.5275 L318.9994,952.6837 L314.2338,952.6837 L314.2338,955.9337 L319.4994,955.9337 L319.4994,958.09 Z " fill="#000000"/><text fill="#000000" font-family="sans-serif" font-size="14" lengthAdjust="spacing" textLength="79.4541" x="329.39" y="956.9367">BookStatus</text><line style="stroke:#181818;stroke-width:0.5;" x1="301.39" x2="410.8441" y1="968.09" y2="968.09"/><text fill="#000000" font-family="sans-serif" font-size="14" lengthAdjust="spacing" textLength="86.8096" x="306.39" y="985.0851">PURCHASED</text><text fill="#000000" font-family="sans-serif" font-size="14" lengthAdjust="spacing" textLength="76.4873" x="306.39" y="1001.382">AVAILABLE</text><text fill="#000000" font-family="sans-serif" font-size="14" lengthAdjust="spacing" textLength="84.5674" x="306.39" y="1017.6789">BORROWED</text><text fill="#000000" font-family="sans-serif" font-size="14" lengthAdjust="spacing" textLength="83.2822" x="306.39" y="1033.9757">DISCARDED</text><line style="stroke:#181818;stroke-width:0.5;" x1="301.39" x2="410.8441" y1="1041.2775" y2="1041.2775"/></g><!--class Library--><g class="entity" data-entity="Library" data-source-line="41" data-uid="ent0005" id="entity_Library"><rect fill="#F1F1F1" height="227.2656" rx="2.5" ry="2.5" style="stroke:#181818;stroke-width:0.5;" width="412.1963" x="150.02" y="7"/><ellipse cx="327.3921" cy="23" fill="#ADD1B2" rx="11" ry="11" style="stroke:#181818;stroke-width:1;"/><path d="M330.3608,28.6406 Q329.7827,28.9375 329.1421,29.0781 Q328.5014,29.2344 327.7983,29.2344 Q325.2983,29.2344 323.9702,27.5938 Q322.6577,25.9375 322.6577,22.8125 Q322.6577,19.6875 323.9702,18.0313 Q325.2983,16.375 327.7983,16.375 Q328.5014,16.375 329.1421,16.5313 Q329.7983,16.6875 330.3608,16.9844 L330.3608,19.7031 Q329.7358,19.125 329.1421,18.8594 Q328.5483,18.5781 327.9233,18.5781 Q326.5796,18.5781 325.8921,19.6563 Q325.2046,20.7188 325.2046,22.8125 Q325.2046,24.9063 325.8921,25.9844 Q326.5796,27.0469 327.9233,27.0469 Q328.5483,27.0469 329.1421,26.7813 Q329.7358,26.5 330.3608,25.9219 L330.3608,28.6406 Z " fill="#000000"/><text fill="#000000" font-family="sans-serif" font-size="14" lengthAdjust="spacing" textLength="48.9521" x="347.8921" y="27.8467">Library</text><line style="stroke:#181818;stroke-width:0.5;" x1="151.02" x2="561.2163" y1="39" y2="39"/><text fill="#000000" font-family="sans-serif" font-size="14" lengthAdjust="spacing" textLength="114.0576" x="156.02" y="55.9951">-libraryId: String</text><text fill="#000000" font-family="sans-serif" font-size="14" lengthAdjust="spacing" textLength="95.7031" x="156.02" y="72.292">-name: String</text><line style="stroke:#181818;stroke-width:1;" x1="151.02" x2="561.2163" y1="79.5938" y2="79.5938"/><text fill="#000000" font-family="sans-serif" font-size="14" lengthAdjust="spacing" textLength="219.2695" x="156.02" y="96.5889">+registerUser(user: User): void</text><text fill="#000000" font-family="sans-serif" font-size="14" lengthAdjust="spacing" textLength="259.9023" x="156.02" y="112.8857">+unregisterUser(userId: String): void</text><text fill="#000000" font-family="sans-serif" font-size="14" lengthAdjust="spacing" textLength="400.1963" x="156.02" y="129.1826">+borrowBook(userId: String, bookId: String): LoanRecord</text><text fill="#000000" font-family="sans-serif" font-size="14" lengthAdjust="spacing" textLength="233.5225" x="156.02" y="145.4795">+returnBook(loanId: String): void</text><text fill="#000000" font-family="sans-serif" font-size="14" lengthAdjust="spacing" textLength="333.1904" x="156.02" y="161.7764">+purchaseBook(isbn: String, title: String): Book</text><text fill="#000000" font-family="sans-serif" font-size="14" lengthAdjust="spacing" textLength="245.3691" x="156.02" y="178.0732">+discardBook(bookId: String): void</text><text fill="#000000" font-family="sans-serif" font-size="14" lengthAdjust="spacing" textLength="284.7988" x="156.02" y="194.3701">+checkBorrowLimit(user: User): boolean</text><text fill="#000000" font-family="sans-serif" font-size="14" lengthAdjust="spacing" textLength="290.3633" x="156.02" y="210.667">+findAvailableBook(bookId: String): Book</text><text fill="#000000" font-family="sans-serif" font-size="14" lengthAdjust="spacing" textLength="216.7197" x="156.02" y="226.9639">+findUser(userId: String): User</text></g><!--class LoanRecord--><g class="entity" data-entity="LoanRecord" data-source-line="56" data-uid="ent0006" id="entity_LoanRecord"><rect fill="#F1F1F1" height="210.9688" rx="2.5" ry="2.5" style="stroke:#181818;stroke-width:0.5;" width="330.2813" x="190.98" y="648.12"/><ellipse cx="310.3389" cy="664.12" fill="#ADD1B2" rx="11" ry="11" style="stroke:#181818;stroke-width:1;"/><path d="M313.3076,669.7606 Q312.7295,670.0575 312.0889,670.1981 Q311.4483,670.3544 310.7451,670.3544 Q308.2451,670.3544 306.917,668.7137 Q305.6045,667.0575 305.6045,663.9325 Q305.6045,660.8075 306.917,659.1512 Q308.2451,657.495 310.7451,657.495 Q311.4483,657.495 312.0889,657.6512 Q312.7451,657.8075 313.3076,658.1044 L313.3076,660.8231 Q312.6826,660.245 312.0889,659.9794 Q311.4951,659.6981 310.8701,659.6981 Q309.5264,659.6981 308.8389,660.7762 Q308.1514,661.8387 308.1514,663.9325 Q308.1514,666.0262 308.8389,667.1044 Q309.5264,668.1669 310.8701,668.1669 Q311.4951,668.1669 312.0889,667.9012 Q312.6826,667.62 313.3076,667.0419 L313.3076,669.7606 Z " fill="#000000"/><text fill="#000000" font-family="sans-serif" font-size="14" lengthAdjust="spacing" textLength="83.0635" x="330.8389" y="668.9667">LoanRecord</text><line style="stroke:#181818;stroke-width:0.5;" x1="191.98" x2="520.2613" y1="680.12" y2="680.12"/><text fill="#000000" font-family="sans-serif" font-size="14" lengthAdjust="spacing" textLength="98.9229" x="196.98" y="697.1151">-loanId: String</text><text fill="#000000" font-family="sans-serif" font-size="14" lengthAdjust="spacing" textLength="130.1221" x="196.98" y="713.412">-borrowDate: Date</text><text fill="#000000" font-family="sans-serif" font-size="14" lengthAdjust="spacing" textLength="107.5156" x="196.98" y="729.7089">-dueDate: Date</text><text fill="#000000" font-family="sans-serif" font-size="14" lengthAdjust="spacing" textLength="124.5029" x="196.98" y="746.0057">-returnDate: Date</text><text fill="#000000" font-family="sans-serif" font-size="14" lengthAdjust="spacing" textLength="141.4219" x="196.98" y="762.3026">-isOverdue: boolean</text><line style="stroke:#181818;stroke-width:1;" x1="191.98" x2="520.2613" y1="769.6044" y2="769.6044"/><text fill="#000000" font-family="sans-serif" font-size="14" lengthAdjust="spacing" textLength="318.2813" x="196.98" y="786.5995">+create(user: User, book: Book): LoanRecord</text><text fill="#000000" font-family="sans-serif" font-size="14" lengthAdjust="spacing" textLength="298.6826" x="196.98" y="802.8964">+markAsReturned(returnDate: Date): void</text><text fill="#000000" font-family="sans-serif" font-size="14" lengthAdjust="spacing" textLength="142.8096" x="196.98" y="819.1932">+calculateFine(): int</text><text fill="#000000" font-family="sans-serif" font-size="14" lengthAdjust="spacing" textLength="159.0244" x="196.98" y="835.4901">+isOverdue(): boolean</text><text fill="#000000" font-family="sans-serif" font-size="14" lengthAdjust="spacing" textLength="168.0479" x="196.98" y="851.787">+getDaysOverdue(): int</text></g><g class="entity" data-entity="GMN12" data-source-line="78" data-uid="ent0013" id="entity_GMN12"><path d="M282.62,421.06 L282.62,437.19 L247.58,441.19 L282.62,445.19 L282.62,461.3256 A0,0 0 0 0 282.62,461.3256 L433.6202,461.3256 A0,0 0 0 0 433.6202,461.3256 L433.6202,431.06 L423.6202,421.06 L282.62,421.06 A0,0 0 0 0 282.62,421.06" fill="#FEFFDD" style="stroke:#181818;stroke-width:0.5;"/><path d="M423.6202,421.06 L423.6202,431.06 L433.6202,431.06 L423.6202,421.06" fill="#FEFFDD" style="stroke:#181818;stroke-width:0.5;"/><text fill="#000000" font-family="sans-serif" font-size="13" lengthAdjust="spacing" textLength="130.0002" x="288.62" y="438.1269">&#21033;&#29992;&#32773;&#12399;&#30331;&#37682;&#35299;&#38500;&#21487;&#33021;</text><text fill="#000000" font-family="sans-serif" font-size="13" lengthAdjust="spacing" textLength="112.2711" x="288.62" y="453.2597">&#36024;&#20986;&#19978;&#38480;&#12399;5&#20874;&#12414;&#12391;</text></g><g class="entity" data-entity="GMN15" data-source-line="83" data-uid="ent0016" id="entity_GMN15"><path d="M738.62,421.06 L738.62,437.19 L703.79,441.19 L738.62,445.19 L738.62,461.3256 A0,0 0 0 0 738.62,461.3256 L915.6202,461.3256 A0,0 0 0 0 915.6202,461.3256 L915.6202,431.06 L905.6202,421.06 L738.62,421.06 A0,0 0 0 0 738.62,421.06" fill="#FEFFDD" style="stroke:#181818;stroke-width:0.5;"/><path d="M905.6202,421.06 L905.6202,431.06 L915.6202,431.06 L905.6202,421.06" fill="#FEFFDD" style="stroke:#181818;stroke-width:0.5;"/><text fill="#000000" font-family="sans-serif" font-size="13" lengthAdjust="spacing" textLength="130.0002" x="744.62" y="438.1269">&#26412;&#12399;&#36092;&#20837;&#24460;&#12395;&#36024;&#20986;&#21487;&#33021;</text><text fill="#000000" font-family="sans-serif" font-size="13" lengthAdjust="spacing" textLength="156.0002" x="744.62" y="453.2597">&#30772;&#25613;&#12420;&#19968;&#23450;&#26399;&#38291;&#32076;&#36942;&#12391;&#24259;&#26820;</text></g><g class="entity" data-entity="GMN18" data-source-line="88" data-uid="ent0019" id="entity_GMN18"><path d="M556.12,733.48 L556.12,749.61 L521.63,753.61 L556.12,757.61 L556.12,773.7456 A0,0 0 0 0 556.12,773.7456 L720.1202,773.7456 A0,0 0 0 0 720.1202,773.7456 L720.1202,743.48 L710.1202,733.48 L556.12,733.48 A0,0 0 0 0 556.12,733.48" fill="#FEFFDD" style="stroke:#181818;stroke-width:0.5;"/><path d="M710.1202,733.48 L710.1202,743.48 L720.1202,743.48 L710.1202,733.48" fill="#FEFFDD" style="stroke:#181818;stroke-width:0.5;"/><text fill="#000000" font-family="sans-serif" font-size="13" lengthAdjust="spacing" textLength="143.0002" x="562.12" y="750.5469">&#36024;&#20986;&#35352;&#37682;&#12399;&#36820;&#21364;&#26178;&#12395;&#26356;&#26032;</text><text fill="#000000" font-family="sans-serif" font-size="13" lengthAdjust="spacing" textLength="130.0002" x="562.12" y="765.6797">&#24310;&#28382;&#12481;&#12455;&#12483;&#12463;&#27231;&#33021;&#12354;&#12426;</text></g><!--link User to LoanRecord--><g class="link" data-entity-1="User" data-entity-2="LoanRecord" data-source-line="71" data-uid="lnk7" id="link_User_LoanRecord"><path codeLine="71" d="M204.33,546.85 C228.35,579.41 254.83,615.31 278.86,647.88" fill="none" id="User-LoanRecord" style="stroke:#181818;stroke-width:1;"/><text fill="#000000" font-family="sans-serif" font-size="13" lengthAdjust="spacing" textLength="52.2539" x="256.12" y="614.1869">borrows</text><text fill="#000000" font-family="sans-serif" font-size="13" lengthAdjust="spacing" textLength="8.271" x="201.4872" y="566.8778">1</text><text fill="#000000" font-family="sans-serif" font-size="13" lengthAdjust="spacing" textLength="6.5" x="267.2343" y="636.9905">*</text></g><!--link Book to LoanRecord--><g class="link" data-entity-1="Book" data-entity-2="LoanRecord" data-source-line="72" data-uid="lnk8" id="link_Book_LoanRecord"><path codeLine="72" d="M490.24,571.59 C471.39,597.04 451.82,623.45 433.66,647.96" fill="none" id="Book-LoanRecord" style="stroke:#181818;stroke-width:1;"/><text fill="#000000" font-family="sans-serif" font-size="13" lengthAdjust="spacing" textLength="24.9463" x="465.12" y="614.1869">lent</text><text fill="#000000" font-family="sans-serif" font-size="13" lengthAdjust="spacing" textLength="8.271" x="476.7853" y="591.2019">1</text><text fill="#000000" font-family="sans-serif" font-size="13" lengthAdjust="spacing" textLength="6.5" x="432.9186" y="637.0761">*</text></g><!--link Library to User--><g class="link" data-entity-1="Library" data-entity-2="User" data-source-line="73" data-uid="lnk9" id="link_Library_User"><path codeLine="73" d="M275.06,234.39 C251.45,267.24 225.76,302.97 202.52,335.31" fill="none" id="Library-User" style="stroke:#181818;stroke-width:1;"/><text fill="#000000" font-family="sans-serif" font-size="13" lengthAdjust="spacing" textLength="59.8584" x="249.12" y="277.3269">manages</text><text fill="#000000" font-family="sans-serif" font-size="13" lengthAdjust="spacing" textLength="8.271" x="261.6196" y="254.2292">1</text><text fill="#000000" font-family="sans-serif" font-size="13" lengthAdjust="spacing" textLength="6.5" x="201.4012" y="324.7633">*</text></g><!--link Library to Book--><g class="link" data-entity-1="Library" data-entity-2="Book" data-source-line="74" data-uid="lnk10" id="link_Library_Book"><path codeLine="74" d="M437.53,234.39 C455.43,259.18 474.52,285.62 492.84,311" fill="none" id="Library-Book" style="stroke:#181818;stroke-width:1;"/><text fill="#000000" font-family="sans-serif" font-size="13" lengthAdjust="spacing" textLength="59.8584" x="472.12" y="277.3269">manages</text><text fill="#000000" font-family="sans-serif" font-size="13" lengthAdjust="spacing" textLength="8.271" x="434.4979" y="254.2292">1</text><text fill="#000000" font-family="sans-serif" font-size="13" lengthAdjust="spacing" textLength="6.5" x="481.2884" y="300.1105">*</text></g><!--link LoanRecord to BookStatus--><g class="link" data-entity-1="LoanRecord" data-entity-2="BookStatus" data-source-line="75" data-uid="lnk11" id="link_LoanRecord_BookStatus"><path codeLine="75" d="M356.12,859.28 C356.12,885.58 356.12,906.8 356.12,929.67" fill="none" id="LoanRecord-to-BookStatus" style="stroke:#181818;stroke-width:1;stroke-dasharray:7,7;"/><polygon fill="#181818" points="356.12,935.67,360.12,926.67,356.12,930.67,352.12,926.67,356.12,935.67" style="stroke:#181818;stroke-width:1;"/><text fill="#000000" font-family="sans-serif" font-size="13" lengthAdjust="spacing" textLength="29.7832" x="357.12" y="902.1569">uses</text></g><!--SRC=[XLLTQnD157tVNp7anTP-e0zz2IZaes8WK4ceVPxiJfCXczaoCnkj8kIZLIcj5Yp5QB5YbRGeLcgLOhJ-cErkad_XxEmcsTsc-B9CxZrpviwvPsvO6PCLI645g3faBC4vnGMJeunga3n-XC0DHP4PiCWG1OyL06Q0APOPBGxo0aoACaHW1OK251KnunHoR90qv2BfVcMg0Xyc3KgD1rbSmJmECE7W5fYJESmIAiTL0IyOXeuWSQCpuZFbCo8wCHa7LGDhCcYIiM4L4ky8DpfYcW95n5CcfOXmBvyoJC9Ta2X20Z1Rmho4IQ328CUJWHn9moZxSeXSEI87PWKI2d3CzR10AoPLIv2XY3YCGswokEJFoxKlEImYMUoWr1aWwk2YArgOmHDhm1vIHSDCXLGBnOJWLOXrMD1HLAiAfEK4yuH0uLrUAeUuIKaanKg6gMj9bFOEyx81-H0nAu7RIGtlBUPITnFv-RHO9-udCjb4CZilric5N6vXIORJcNmgaKkBzR05MLoWaAxwNT2zN__nPTXAhgSdN3V7fRt76si86b47WGMfZtkX26WwOWonAMj0aaEgGJM_35S_kLKNcV7yWqvAMD1Nqs5JJNgU2JPQRhbKnEYHb91Q3leyf4JG2SkOQ4ERZ6STdkrYnqlcHWFT6senQ6180lzbkSL5NeXcHj-CfsCaYDb25L417ZDAL8e4B71VhrVUBIxtAUBsw77XmQEhfYw2Tp11uRdYbpDc8gNXQZ3hRX4oNGFztG_zse5JQojo-CPkniG5GEnwB2XUt5U9AN8aNGNInSXJ1Yyc09BCSN558WOC6uUGj074Y7LszdRm9SVTFmQcACJW251SB75WB7jT1y1-VjJTEUpLrgtwSRVLwM-UzDe7_TP7- -Lnh_b707edP_QpNnTd6_tMji3CsKythFgvLM-BYQ41bpFAx5lEsViYyBtll-trJ_RvfbN_x54DcRllJvtjBQknTd5Mix- -SVRs-xklkZys-_KNWjxkD9s3jIiF2Ld18-uTlXRbksV-tR6tJfrMGvpfl3rrTh-v5-tyT3hlh6RTQhIjPjDg73j7-w8Ggzwm6Xl3S_u1]--></g></svg>