<svg xmlns="http://www.w3.org/2000/svg" xmlns:xlink="http://www.w3.org/1999/xlink" contentStyleType="text/css" data-diagram-type="STATE" height="935px" preserveAspectRatio="none" style="width:585px;height:935px;background:#FFFFFF;" version="1.1" viewBox="0 0 585 935" width="585px" zoomAndPan="magnify"><title>Book&#12458;&#12502;&#12472;&#12455;&#12463;&#12488;&#12398;&#12473;&#12486;&#12540;&#12488;&#12510;&#12471;&#12531;&#22259;</title><defs/><g><g class="title" data-source-line="1"><text fill="#000000" font-family="sans-serif" font-size="14" font-weight="bold" lengthAdjust="spacing" textLength="249.2169" x="161.3837" y="22.9951">Book&#12458;&#12502;&#12472;&#12455;&#12463;&#12488;&#12398;&#12473;&#12486;&#12540;&#12488;&#12510;&#12471;&#12531;&#22259;</text></g><g id="...."><rect fill="#F1F1F1" height="92.1719" rx="12.5" ry="12.5" style="stroke:#181818;stroke-width:0.5;" width="148.9648" x="157.04" y="124.2969"/><line style="stroke:#181818;stroke-width:0.5;" x1="157.04" x2="306.0048" y1="150.5938" y2="150.5938"/><text fill="#000000" font-family="sans-serif" font-size="14" lengthAdjust="spacing" textLength="55.9998" x="203.5225" y="142.292">&#36092;&#20837;&#28168;&#12415;</text><text fill="#000000" font-family="sans-serif" font-size="12" lengthAdjust="spacing" textLength="115.4009" x="162.04" y="166.7324">entry / &#22259;&#26360;&#39208;&#12364;&#36092;&#20837;</text><text fill="#000000" font-family="sans-serif" font-size="12" lengthAdjust="spacing" textLength="64.7109" x="162.04" y="180.7012">purchase()</text><text fill="#000000" font-family="sans-serif" font-size="12" lengthAdjust="spacing" textLength="74.6312" x="162.04" y="194.6699">do / &#30331;&#37682;&#20966;&#29702;</text><text fill="#000000" font-family="sans-serif" font-size="12" lengthAdjust="spacing" textLength="128.9648" x="162.04" y="208.6387">status = PURCHASED</text></g><g id="..."><rect fill="#F1F1F1" height="92.1719" rx="12.5" ry="12.5" style="stroke:#181818;stroke-width:0.5;" width="140.1172" x="161.46" y="308.4669"/><line style="stroke:#181818;stroke-width:0.5;" x1="161.46" x2="301.5772" y1="334.7638" y2="334.7638"/><text fill="#000000" font-family="sans-serif" font-size="14" lengthAdjust="spacing" textLength="41.9998" x="210.5187" y="326.462">&#36024;&#20986;&#21487;</text><text fill="#000000" font-family="sans-serif" font-size="12" lengthAdjust="spacing" textLength="115.4009" x="166.46" y="350.9024">entry / &#36024;&#20986;&#21487;&#33021;&#29366;&#24907;</text><text fill="#000000" font-family="sans-serif" font-size="12" lengthAdjust="spacing" textLength="120.1172" x="166.46" y="364.8712">status = AVAILABLE</text><text fill="#000000" font-family="sans-serif" font-size="12" lengthAdjust="spacing" textLength="74.6312" x="166.46" y="378.8399">do / &#36024;&#20986;&#24453;&#12385;</text><text fill="#000000" font-family="sans-serif" font-size="12" lengthAdjust="spacing" textLength="116.2793" x="166.46" y="392.8087">isAvailable() = true</text></g><g id="..."><rect fill="#F1F1F1" height="92.1719" rx="12.5" ry="12.5" style="stroke:#181818;stroke-width:0.5;" width="147.043" x="7" y="522.6369"/><line style="stroke:#181818;stroke-width:0.5;" x1="7" x2="154.043" y1="548.9338" y2="548.9338"/><text fill="#000000" font-family="sans-serif" font-size="14" lengthAdjust="spacing" textLength="41.9998" x="59.5216" y="540.632">&#36024;&#20986;&#20013;</text><text fill="#000000" font-family="sans-serif" font-size="12" lengthAdjust="spacing" textLength="115.4009" x="12" y="565.0724">entry / &#36024;&#20986;&#35352;&#37682;&#20316;&#25104;</text><text fill="#000000" font-family="sans-serif" font-size="12" lengthAdjust="spacing" textLength="127.043" x="12" y="579.0412">status = BORROWED</text><text fill="#000000" font-family="sans-serif" font-size="12" lengthAdjust="spacing" textLength="62.6311" x="12" y="593.0099">do / &#36024;&#20986;&#20013;</text><text fill="#000000" font-family="sans-serif" font-size="12" lengthAdjust="spacing" textLength="119.1976" x="12" y="606.9787">LoanRecord&#20316;&#25104;&#28168;&#12415;</text></g><g id=".."><rect fill="#F1F1F1" height="78.2031" rx="12.5" ry="12.5" style="stroke:#181818;stroke-width:0.5;" width="145.9414" x="153.55" y="751.8169"/><line style="stroke:#181818;stroke-width:0.5;" x1="153.55" x2="299.4914" y1="778.1138" y2="778.1138"/><text fill="#000000" font-family="sans-serif" font-size="14" lengthAdjust="spacing" textLength="27.9999" x="212.5208" y="769.812">&#24259;&#26820;</text><text fill="#000000" font-family="sans-serif" font-size="12" lengthAdjust="spacing" textLength="91.4008" x="158.55" y="794.2524">entry / &#24259;&#26820;&#20966;&#29702;</text><text fill="#000000" font-family="sans-serif" font-size="12" lengthAdjust="spacing" textLength="125.9414" x="158.55" y="808.2212">status = DISCARDED</text><text fill="#000000" font-family="sans-serif" font-size="12" lengthAdjust="spacing" textLength="110.6315" x="158.55" y="822.1899">do / &#12487;&#12540;&#12479;&#21066;&#38500;&#28310;&#20633;</text></g><ellipse cx="231.52" cy="53.2969" fill="#222222" rx="10" ry="10" style="stroke:#222222;stroke-width:1;"/><ellipse cx="226.52" cy="918.0169" fill="none" rx="11" ry="11" style="stroke:#222222;stroke-width:1;"/><ellipse cx="226.52" cy="918.0169" fill="#222222" rx="6" ry="6" style="stroke:#222222;stroke-width:1;"/><g class="entity" data-entity="GMN2" data-source-line="29" data-uid="ent0003" id="entity_GMN2"><path d="M341.39,150.2469 L341.39,166.3869 L306.22,170.3869 L341.39,174.3869 L341.39,190.5125 A0,0 0 0 0 341.39,190.5125 L487.6611,190.5125 A0,0 0 0 0 487.6611,190.5125 L487.6611,160.2469 L477.6611,150.2469 L341.39,150.2469 A0,0 0 0 0 341.39,150.2469" fill="#FEFFDD" style="stroke:#181818;stroke-width:0.5;"/><path d="M477.6611,150.2469 L477.6611,160.2469 L487.6611,160.2469 L477.6611,150.2469" fill="#FEFFDD" style="stroke:#181818;stroke-width:0.5;"/><text fill="#000000" font-family="sans-serif" font-size="13" lengthAdjust="spacing" textLength="125.2711" x="347.39" y="167.3138">&#22259;&#26360;&#39208;&#12364;1&#20874;&#12378;&#12388;&#36092;&#20837;</text><text fill="#000000" font-family="sans-serif" font-size="13" lengthAdjust="spacing" textLength="104.0001" x="347.39" y="182.4466">&#36092;&#20837;&#24460;&#12395;&#30331;&#37682;&#20966;&#29702;</text></g><g class="entity" data-entity="GMN5" data-source-line="34" data-uid="ent0006" id="entity_GMN5"><path d="M337.02,326.8569 L337.02,350.5569 L302.07,354.5569 L337.02,358.5569 L337.02,382.2553 A0,0 0 0 0 337.02,382.2553 L462.0201,382.2553 A0,0 0 0 0 462.0201,382.2553 L462.0201,336.8569 L452.0201,326.8569 L337.02,326.8569 A0,0 0 0 0 337.02,326.8569" fill="#FEFFDD" style="stroke:#181818;stroke-width:0.5;"/><path d="M452.0201,326.8569 L452.0201,336.8569 L462.0201,336.8569 L452.0201,326.8569" fill="#FEFFDD" style="stroke:#181818;stroke-width:0.5;"/><text fill="#000000" font-family="sans-serif" font-size="13" lengthAdjust="spacing" textLength="91.0001" x="343.02" y="343.9238">&#36024;&#20986;&#21487;&#33021;&#12394;&#29366;&#24907;</text><text fill="#000000" font-family="sans-serif" font-size="13" lengthAdjust="spacing" textLength="91.0001" x="343.02" y="359.0566">&#35079;&#25968;&#12398;&#21033;&#29992;&#32773;&#12364;</text><text fill="#000000" font-family="sans-serif" font-size="13" lengthAdjust="spacing" textLength="104.0001" x="343.02" y="374.1894">&#38918;&#30058;&#12395;&#20511;&#12426;&#12425;&#12428;&#12427;</text></g><g class="entity" data-entity="GMN8" data-source-line="40" data-uid="ent0009" id="entity_GMN8"><path d="M189.52,548.5969 L189.52,564.7269 L154.32,568.7269 L189.52,572.7269 L189.52,588.8625 A0,0 0 0 0 189.52,588.8625 L301.5201,588.8625 A0,0 0 0 0 301.5201,588.8625 L301.5201,558.5969 L291.5201,548.5969 L189.52,548.5969 A0,0 0 0 0 189.52,548.5969" fill="#FEFFDD" style="stroke:#181818;stroke-width:0.5;"/><path d="M291.5201,548.5969 L291.5201,558.5969 L301.5201,558.5969 L291.5201,548.5969" fill="#FEFFDD" style="stroke:#181818;stroke-width:0.5;"/><text fill="#000000" font-family="sans-serif" font-size="13" lengthAdjust="spacing" textLength="86.2711" x="195.52" y="565.6638">1&#20154;&#12398;&#21033;&#29992;&#32773;&#12364;</text><text fill="#000000" font-family="sans-serif" font-size="13" lengthAdjust="spacing" textLength="91.0001" x="195.52" y="580.7966">&#20511;&#12426;&#12390;&#12356;&#12427;&#29366;&#24907;</text></g><g class="entity" data-entity="GMN11" data-source-line="45" data-uid="ent0012" id="entity_GMN11"><path d="M334.02,763.2169 L334.02,786.9169 L299.79,790.9169 L334.02,794.9169 L334.02,818.6153 A0,0 0 0 0 334.02,818.6153 L485.0202,818.6153 A0,0 0 0 0 485.0202,818.6153 L485.0202,773.2169 L475.0202,763.2169 L334.02,763.2169 A0,0 0 0 0 334.02,763.2169" fill="#FEFFDD" style="stroke:#181818;stroke-width:0.5;"/><path d="M475.0202,763.2169 L475.0202,773.2169 L485.0202,773.2169 L475.0202,763.2169" fill="#FEFFDD" style="stroke:#181818;stroke-width:0.5;"/><text fill="#000000" font-family="sans-serif" font-size="13" lengthAdjust="spacing" textLength="65.0001" x="340.02" y="780.2838">&#30772;&#25613;&#12414;&#12383;&#12399;</text><text fill="#000000" font-family="sans-serif" font-size="13" lengthAdjust="spacing" textLength="130.0002" x="340.02" y="795.4166">&#19968;&#23450;&#26399;&#38291;&#21033;&#29992;&#12373;&#12428;&#12383;&#12425;</text><text fill="#000000" font-family="sans-serif" font-size="13" lengthAdjust="spacing" textLength="65.0001" x="340.02" y="810.5494">&#24259;&#26820;&#12373;&#12428;&#12427;</text></g><!--link *start* to ????--><g class="link" data-entity-1=".start." data-entity-2="...." data-source-line="3" data-uid="lnk3" id="link_.start._...."><path d="M231.52,63.7169 C231.52,76.8669 231.52,95.6269 231.52,117.8769" fill="none" id="*start*-to-&#36092;&#20837;&#28168;&#12415;" style="stroke:#181818;stroke-width:1;"/><polygon fill="#181818" points="231.52,123.8769,235.52,114.8769,231.52,118.8769,227.52,114.8769,231.52,123.8769" style="stroke:#181818;stroke-width:1;"/></g><!--link ???? to ???--><g class="link" data-entity-1="...." data-entity-2="..." data-source-line="8" data-uid="lnk4" id="link_...._..."><path d="M231.52,216.8869 C231.52,244.7069 231.52,274.1769 231.52,302.0069" fill="none" id="&#36092;&#20837;&#28168;&#12415;-to-&#36024;&#20986;&#21487;" style="stroke:#181818;stroke-width:1;"/><polygon fill="#181818" points="231.52,308.0069,235.52,299.0069,231.52,303.0069,227.52,299.0069,231.52,308.0069" style="stroke:#181818;stroke-width:1;"/><text fill="#000000" font-family="sans-serif" font-size="13" lengthAdjust="spacing" textLength="52.0001" x="250.5918" y="259.5338">&#30331;&#37682;&#23436;&#20102;</text><text fill="#000000" font-family="sans-serif" font-size="13" lengthAdjust="spacing" textLength="88.1436" x="232.52" y="274.6666">[&#30331;&#37682;&#20966;&#29702;&#23436;&#20102;]</text></g><!--link ??? to ???--><g class="link" data-entity-1="..." data-entity-2="..." data-source-line="13" data-uid="lnk5" id="link_..._..."><path d="M161.33,371.6869 C130.01,382.7569 96.04,401.0069 77.52,430.6369 C60.62,457.6969 61.1148,488.0914 66.4948,516.5314" fill="none" id="&#36024;&#20986;&#21487;-to-&#36024;&#20986;&#20013;" style="stroke:#181818;stroke-width:1;"/><polygon fill="#181818" points="67.61,522.4269,69.8674,512.8402,66.6806,517.514,62.0068,514.3272,67.61,522.4269" style="stroke:#181818;stroke-width:1;"/><text fill="#000000" font-family="sans-serif" font-size="13" lengthAdjust="spacing" textLength="26" x="120.0559" y="443.7038">&#36024;&#20986;</text><text fill="#000000" font-family="sans-serif" font-size="13" lengthAdjust="spacing" textLength="87.9785" x="89.0667" y="458.8366">borrowBook()</text><text fill="#000000" font-family="sans-serif" font-size="13" lengthAdjust="spacing" textLength="109.0719" x="78.52" y="473.9694">[&#21033;&#29992;&#32773;&#12364;&#30331;&#37682;&#28168;&#12415;</text><text fill="#000000" font-family="sans-serif" font-size="13" lengthAdjust="spacing" textLength="109.0719" x="78.52" y="489.1022">&#12363;&#12388;&#36024;&#20986;&#19978;&#38480;&#20197;&#20869;]</text></g><!--link ??? to ???--><g class="link" data-entity-1="..." data-entity-2="..." data-source-line="18" data-uid="lnk6" id="link_..._..."><path d="M154.41,529.0769 C168.68,518.8369 182.33,506.6569 192.52,492.6369 C212.02,465.8269 220.7757,435.4305 225.6657,406.9205" fill="none" id="&#36024;&#20986;&#20013;-to-&#36024;&#20986;&#21487;" style="stroke:#181818;stroke-width:1;"/><polygon fill="#181818" points="226.68,401.0069,221.2161,409.2011,225.8347,405.9349,229.101,410.5535,226.68,401.0069" style="stroke:#181818;stroke-width:1;"/><text fill="#000000" font-family="sans-serif" font-size="13" lengthAdjust="spacing" textLength="26" x="252.5918" y="451.2038">&#36820;&#21364;</text><text fill="#000000" font-family="sans-serif" font-size="13" lengthAdjust="spacing" textLength="82.7607" x="224.2115" y="466.3366">returnBook()</text><text fill="#000000" font-family="sans-serif" font-size="13" lengthAdjust="spacing" textLength="88.1436" x="221.52" y="481.4694">[&#26399;&#38480;&#20869;&#12395;&#36820;&#21364;]</text></g><!--link ??? to ??--><g class="link" data-entity-1="..." data-entity-2=".." data-source-line="20" data-uid="lnk7" id="link_..._.."><path d="M295.44,400.8769 C304.41,409.7969 312.58,419.7969 318.52,430.6369 C381.06,544.7769 415.6,609.6969 349.52,721.8169 C343.23,732.4869 327.9183,742.6385 305.2983,754.3485" fill="none" id="&#36024;&#20986;&#21487;-to-&#24259;&#26820;" style="stroke:#181818;stroke-width:1;"/><polygon fill="#181818" points="299.97,757.1069,309.8014,756.5215,304.4103,754.8082,306.1236,749.4171,299.97,757.1069" style="stroke:#181818;stroke-width:1;"/><text fill="#000000" font-family="sans-serif" font-size="13" lengthAdjust="spacing" textLength="26" x="469.2522" y="543.2938">&#24259;&#26820;</text><text fill="#000000" font-family="sans-serif" font-size="13" lengthAdjust="spacing" textLength="70.0719" x="447.2163" y="558.4266">[&#30772;&#25613;&#12414;&#12383;&#12399;</text><text fill="#000000" font-family="sans-serif" font-size="13" lengthAdjust="spacing" textLength="83.0719" x="440.7162" y="573.5594">&#19968;&#23450;&#26399;&#38291;&#32076;&#36942;]</text><text fill="#000000" font-family="sans-serif" font-size="13" lengthAdjust="spacing" textLength="57.4907" x="453.5068" y="588.6922">discard()</text><text fill="#000000" font-family="sans-serif" font-size="13" lengthAdjust="spacing" textLength="191.4644" x="386.52" y="603.825">[shouldBeDiscarded() = true]</text></g><!--link ??? to ??--><g class="link" data-entity-1="..." data-entity-2=".." data-source-line="21" data-uid="lnk8" id="link_..._.."><path d="M96.67,615.1569 C109.15,646.7769 128.36,688.9969 152.52,721.8169 C160.18,732.2169 165.2482,738.1558 174.7682,747.2358" fill="none" id="&#36024;&#20986;&#20013;-to-&#24259;&#26820;" style="stroke:#181818;stroke-width:1;"/><polygon fill="#181818" points="179.11,751.3769,175.3581,742.2707,175.4918,747.9259,169.8366,748.0597,179.11,751.3769" style="stroke:#181818;stroke-width:1;"/><text fill="#000000" font-family="sans-serif" font-size="13" lengthAdjust="spacing" textLength="26" x="236.2522" y="657.8838">&#24259;&#26820;</text><text fill="#000000" font-family="sans-serif" font-size="13" lengthAdjust="spacing" textLength="70.0719" x="214.2163" y="673.0166">[&#30772;&#25613;&#12414;&#12383;&#12399;</text><text fill="#000000" font-family="sans-serif" font-size="13" lengthAdjust="spacing" textLength="83.0719" x="207.7162" y="688.1494">&#19968;&#23450;&#26399;&#38291;&#32076;&#36942;]</text><text fill="#000000" font-family="sans-serif" font-size="13" lengthAdjust="spacing" textLength="57.4907" x="220.5068" y="703.2822">discard()</text><text fill="#000000" font-family="sans-serif" font-size="13" lengthAdjust="spacing" textLength="191.4644" x="153.52" y="718.415">[shouldBeDiscarded() = true]</text></g><!--link ?? to *end*--><g class="link" data-entity-1=".." data-entity-2=".end." data-source-line="26" data-uid="lnk10" id="link_.._.end."><path d="M226.52,830.4669 C226.52,856.8869 226.52,884.0369 226.52,900.5969" fill="none" id="&#24259;&#26820;-to-*end*" style="stroke:#181818;stroke-width:1;"/><polygon fill="#181818" points="226.52,906.5969,230.52,897.5969,226.52,901.5969,222.52,897.5969,226.52,906.5969" style="stroke:#181818;stroke-width:1;"/><text fill="#000000" font-family="sans-serif" font-size="13" lengthAdjust="spacing" textLength="52.0001" x="227.52" y="873.0838">&#21066;&#38500;&#23436;&#20102;</text></g><!--SRC=[jLHFJnD15B_lfvWZc133rKIJbf98Ge8fKGzi3uLTRMCpQxPRZJTcbhPG5cqY40j4C1P4Z600jPP_7-PrjkstyCrEMRSbnfEttRVlz-VDRzuwMITdahXbFGD-0Euwy0RmJy2Fm5q4TWZy5xWbSC_bg_iU-4zmJyJcYQRDt4gHaP5xf7DoBegxVWExhpGj-aRk49CwzYjoco32tsnqw_l0FDMYq-S5UowJpfj3muCemq98ktRMzOv5UQzTBUaqxwITGfxS9GyU9iVknwR74mDQWPNZXYWtnPiZvEZ13xrM4-4pKJPLJ251fF_QQLZhk1VjoW-_k1mHZpsAJKp6ufFZVT30RgzmMGJsGQVPVEn5EfjBp-PmF0GwTi6CwlrnssfyHGhrhDDPoxQjbpADeM5qBHO_jrVtE_D8wga9rBGw1ROCh7vDKUdMggspNL4gXbCftlwfElllaA9riUKlLYDJnQUIoQd7UA9HP6GeBEXqqahJf3bdsOR2Xu67cC44EbUhOkLKfxRf56mQpkHlRQDRj0hiYsf93PwCE7FzZmj8eHvaV3kdVdK5s2MmRM17EcqrviNXXkHQVzl-xdNPwvHEZMn-BcqRWKm-OnLoHjnCg9ffX3ca1Zp_RpKj50Yt8IZSkDg9YUcnM3A1GOI880Lmot81-PLOmg3hVdDTy5f8AqUGkuZ-Wy_gTciQjHoJsDcd6OTOJ_gtbFJjuwWeLO1joEiKDE5dzI0kFSmekZcQIGqYYM_GN-SdmP4D0dQWbaZMwsL_xHl-KwAt6klTdL9xxG2LnFmsy0hm9U0UyEL_Y65y21vjDPitANjCR0_O0ZBrBFoDJnqamWPonqeqUAK1R4tQmmQ-99K2RAyOyVmR]--></g></svg>