<svg xmlns="http://www.w3.org/2000/svg" xmlns:xlink="http://www.w3.org/1999/xlink" contentStyleType="text/css" data-diagram-type="DESCRIPTION" height="419px" preserveAspectRatio="none" style="width:695px;height:419px;background:#FFFFFF;" version="1.1" viewBox="0 0 695 419" width="695px" zoomAndPan="magnify"><defs/><g><!--cluster ?????????--><g class="cluster" data-entity="........." data-source-line="7" data-uid="ent0004" id="cluster_........."><rect fill="none" height="406" rx="2.5" ry="2.5" style="stroke:#181818;stroke-width:1;" width="488.53" x="201" y="7"/><text fill="#000000" font-family="sans-serif" font-size="14" font-weight="bold" lengthAdjust="spacing" textLength="125.9995" x="382.2653" y="21.9951">&#22259;&#26360;&#39208;&#31649;&#29702;&#12471;&#12473;&#12486;&#12512;</text></g><!--entity UC1--><g class="entity" data-entity="UC1" data-source-line="8" data-uid="ent0005" id="entity_UC1"><ellipse cx="601.2842" cy="74.0028" fill="#F1F1F1" rx="61.5142" ry="14.7028" style="stroke:#181818;stroke-width:0.5;"/><text fill="#000000" font-family="sans-serif" font-size="14" lengthAdjust="spacing" textLength="83.9996" x="559.2844" y="78.6513">&#12518;&#12540;&#12470;&#12540;&#30331;&#37682;</text></g><!--entity UC2--><g class="entity" data-entity="UC2" data-source-line="9" data-uid="ent0006" id="entity_UC2"><ellipse cx="278.5078" cy="171.0036" fill="#F1F1F1" rx="42.5978" ry="14.5236" style="stroke:#181818;stroke-width:0.5;"/><text fill="#000000" font-family="sans-serif" font-size="14" lengthAdjust="spacing" textLength="55.9998" x="250.5079" y="175.6521">&#30331;&#37682;&#35299;&#38500;</text></g><!--entity UC3--><g class="entity" data-entity="UC3" data-source-line="10" data-uid="ent0007" id="entity_UC3"><ellipse cx="278.5073" cy="240.0036" fill="#F1F1F1" rx="52.4973" ry="14.5236" style="stroke:#181818;stroke-width:0.5;"/><text fill="#000000" font-family="sans-serif" font-size="14" lengthAdjust="spacing" textLength="69.9997" x="243.5074" y="244.6521">&#26412;&#12434;&#20511;&#12426;&#12427;</text></g><!--entity UC4--><g class="entity" data-entity="UC4" data-source-line="11" data-uid="ent0008" id="entity_UC4"><ellipse cx="278.5078" cy="107.0036" fill="#F1F1F1" rx="42.5978" ry="14.5236" style="stroke:#181818;stroke-width:0.5;"/><text fill="#000000" font-family="sans-serif" font-size="14" lengthAdjust="spacing" textLength="55.9998" x="250.5079" y="111.6521">&#26412;&#12434;&#36820;&#12377;</text></g><!--entity UC5--><g class="entity" data-entity="UC5" data-source-line="12" data-uid="ent0009" id="entity_UC5"><ellipse cx="278.5142" cy="315.0028" fill="#F1F1F1" rx="61.5142" ry="14.7028" style="stroke:#181818;stroke-width:0.5;"/><text fill="#000000" font-family="sans-serif" font-size="14" lengthAdjust="spacing" textLength="83.9996" x="236.5144" y="319.6513">&#26412;&#12434;&#36092;&#20837;&#12377;&#12427;</text></g><!--entity UC6--><g class="entity" data-entity="UC6" data-source-line="13" data-uid="ent0010" id="entity_UC6"><ellipse cx="278.5142" cy="379.0028" fill="#F1F1F1" rx="61.5142" ry="14.7028" style="stroke:#181818;stroke-width:0.5;"/><text fill="#000000" font-family="sans-serif" font-size="14" lengthAdjust="spacing" textLength="83.9996" x="236.5144" y="383.6513">&#26412;&#12434;&#24259;&#26820;&#12377;&#12427;</text></g><!--entity UC7--><g class="entity" data-entity="UC7" data-source-line="14" data-uid="ent0011" id="entity_UC7"><ellipse cx="601.2824" cy="362.0005" fill="#F1F1F1" rx="72.2524" ry="16.8505" style="stroke:#181818;stroke-width:0.5;"/><text fill="#000000" font-family="sans-serif" font-size="14" lengthAdjust="spacing" textLength="111.9995" x="545.2827" y="366.6489">&#36024;&#20986;&#19978;&#38480;&#12481;&#12455;&#12483;&#12463;</text></g><!--entity UC8--><g class="entity" data-entity="UC8" data-source-line="15" data-uid="ent0012" id="entity_UC8"><ellipse cx="601.2824" cy="254.0005" fill="#F1F1F1" rx="72.2524" ry="16.8505" style="stroke:#181818;stroke-width:0.5;"/><text fill="#000000" font-family="sans-serif" font-size="14" lengthAdjust="spacing" textLength="111.9995" x="545.2827" y="258.6489">&#21033;&#29992;&#21487;&#33021;&#29366;&#24907;&#30906;&#35469;</text></g><!--entity User--><g class="entity" data-entity="User" data-source-line="4" data-uid="ent0002" id="entity_User"><ellipse cx="33.9999" cy="109.35" fill="#F1F1F1" rx="8" ry="8" style="stroke:#181818;stroke-width:0.5;"/><path d="M33.9999,117.35 L33.9999,144.35 M20.9999,125.35 L46.9999,125.35 M33.9999,144.35 L20.9999,159.35 M33.9999,144.35 L46.9999,159.35" fill="none" style="stroke:#181818;stroke-width:0.5;"/><text fill="#000000" font-family="sans-serif" font-size="14" lengthAdjust="spacing" textLength="41.9998" x="13" y="173.8451">&#21033;&#29992;&#32773;</text></g><!--entity Librarian--><g class="entity" data-entity="Librarian" data-source-line="5" data-uid="ent0003" id="entity_Librarian"><ellipse cx="33.9999" cy="317.35" fill="#F1F1F1" rx="8" ry="8" style="stroke:#181818;stroke-width:0.5;"/><path d="M33.9999,325.35 L33.9999,352.35 M20.9999,333.35 L46.9999,333.35 M33.9999,352.35 L20.9999,367.35 M33.9999,352.35 L46.9999,367.35" fill="none" style="stroke:#181818;stroke-width:0.5;"/><text fill="#000000" font-family="sans-serif" font-size="14" lengthAdjust="spacing" textLength="55.9998" x="6" y="381.8451">&#22259;&#26360;&#39208;&#21729;</text></g><!--link User to UC1--><g class="link" data-entity-1="User" data-entity-2="UC1" data-source-line="18" data-uid="lnk13" id="link_User_UC1"><path d="M55.48,120.03 C65.75,111.48 78.79,101.99 92,96 C258.05,20.72 318.48,19.65 499.03,45 C521.84,48.2 541.0289,53.41 560.4189,59.77" fill="none" id="User-to-UC1" style="stroke:#181818;stroke-width:1;"/><polygon fill="#181818" points="566.12,61.64,558.8149,55.0342,561.369,60.0817,556.3216,62.6358,566.12,61.64" style="stroke:#181818;stroke-width:1;"/><text fill="#000000" font-family="sans-serif" font-size="13" lengthAdjust="spacing" textLength="52.0001" x="252.51" y="27.0669">&#30331;&#37682;&#12377;&#12427;</text></g><!--link User to UC2--><g class="link" data-entity-1="User" data-entity-2="UC2" data-source-line="19" data-uid="lnk14" id="link_User_UC2"><path d="M55.35,153.26 C65.79,159.73 79.02,166.66 92,170 C141.28,182.68 194.4303,180.6926 232.4703,176.8526" fill="none" id="User-to-UC2" style="stroke:#181818;stroke-width:1;"/><polygon fill="#181818" points="238.44,176.25,229.0838,173.1741,233.4653,176.7522,229.8873,181.1337,238.44,176.25" style="stroke:#181818;stroke-width:1;"/><text fill="#000000" font-family="sans-serif" font-size="13" lengthAdjust="spacing" textLength="91.0001" x="93" y="166.0669">&#30331;&#37682;&#12434;&#35299;&#38500;&#12377;&#12427;</text></g><!--link User to UC3--><g class="link" data-entity-1="User" data-entity-2="UC3" data-source-line="20" data-uid="lnk15" id="link_User_UC3"><path d="M55.39,170.81 C65.01,183.34 77.57,196.69 92,205 C133.04,228.63 180.8729,236.3464 219.9629,238.9164" fill="none" id="User-to-UC3" style="stroke:#181818;stroke-width:1;"/><polygon fill="#181818" points="225.95,239.31,217.2318,234.7282,220.9608,238.982,216.707,242.7109,225.95,239.31" style="stroke:#181818;stroke-width:1;"/><text fill="#000000" font-family="sans-serif" font-size="13" lengthAdjust="spacing" textLength="65.0001" x="106" y="201.0669">&#26412;&#12434;&#20511;&#12426;&#12427;</text></g><!--link User to UC4--><g class="link" data-entity-1="User" data-entity-2="UC4" data-source-line="21" data-uid="lnk16" id="link_User_UC4"><path d="M55.26,136.33 C95.44,131.02 179.9216,119.8751 232.2016,112.9751" fill="none" id="User-to-UC4" style="stroke:#181818;stroke-width:1;"/><polygon fill="#181818" points="238.15,112.19,228.704,109.402,233.193,112.8442,229.7508,117.3332,238.15,112.19" style="stroke:#181818;stroke-width:1;"/><text fill="#000000" font-family="sans-serif" font-size="13" lengthAdjust="spacing" textLength="52.0001" x="112.5" y="117.0669">&#26412;&#12434;&#36820;&#12377;</text></g><!--link Librarian to UC5--><g class="link" data-entity-1="Librarian" data-entity-2="UC5" data-source-line="22" data-uid="lnk17" id="link_Librarian_UC5"><path d="M62.35,343.39 C101.37,338.24 167.8715,329.4645 217.8415,322.8745" fill="none" id="Librarian-to-UC5" style="stroke:#181818;stroke-width:1;"/><polygon fill="#181818" points="223.79,322.09,214.3443,319.3011,218.8329,322.7437,215.3902,327.2324,223.79,322.09" style="stroke:#181818;stroke-width:1;"/><text fill="#000000" font-family="sans-serif" font-size="13" lengthAdjust="spacing" textLength="78.0001" x="99.5" y="325.0669">&#26412;&#12434;&#36092;&#20837;&#12377;&#12427;</text></g><!--link Librarian to UC6--><g class="link" data-entity-1="Librarian" data-entity-2="UC6" data-source-line="23" data-uid="lnk18" id="link_Librarian_UC6"><path d="M62.21,357 C71.54,360.05 82.12,363.09 92,365 C133.23,372.95 174.4251,376.1918 210.8951,377.7018" fill="none" id="Librarian-to-UC6" style="stroke:#181818;stroke-width:1;"/><polygon fill="#181818" points="216.89,377.95,208.0632,373.5811,211.8943,377.7432,207.7322,381.5743,216.89,377.95" style="stroke:#181818;stroke-width:1;"/><text fill="#000000" font-family="sans-serif" font-size="13" lengthAdjust="spacing" textLength="78.0001" x="99.5" y="361.0669">&#26412;&#12434;&#24259;&#26820;&#12377;&#12427;</text></g><!--link UC3 to UC1--><g class="link" data-entity-1="UC3" data-entity-2="UC1" data-source-line="25" data-uid="lnk19" id="link_UC3_UC1"><path d="M301.32,226.68 C327.53,210.68 368.24,185.86 370.03,185 C425.03,158.58 444.26,164.9 499.03,138 C528.89,123.33 556.069,105.4471 575.929,91.5071" fill="none" id="UC3-to-UC1" style="stroke:#181818;stroke-width:1;stroke-dasharray:7,7;"/><polygon fill="#181818" points="580.84,88.06,571.1755,89.9566,576.7475,90.9326,575.7716,96.5046,580.84,88.06" style="stroke:#181818;stroke-width:1;"/><text fill="#000000" font-family="sans-serif" font-size="13" lengthAdjust="spacing" textLength="63.0068" x="403.0984" y="119.0669">&#171;include&#187;</text><text fill="#000000" font-family="sans-serif" font-size="13" lengthAdjust="spacing" textLength="127.1437" x="371.03" y="134.1997">(&#12518;&#12540;&#12470;&#12540;&#30331;&#37682;&#12364;&#24517;&#35201;)</text></g><!--link UC3 to UC7--><g class="link" data-entity-1="UC3" data-entity-2="UC7" data-source-line="26" data-uid="lnk20" id="link_UC3_UC7"><path d="M303.49,253.2 C315.58,260.73 329.8,271.06 340.03,283 C359.42,305.64 345.33,326.3 370.03,343 C420.53,377.16 486.2648,378.0951 536.1948,372.6951" fill="none" id="UC3-to-UC7" style="stroke:#181818;stroke-width:1;stroke-dasharray:7,7;"/><polygon fill="#181818" points="542.16,372.05,532.7821,369.0409,537.189,372.5876,533.6423,376.9945,542.16,372.05" style="stroke:#181818;stroke-width:1;"/><text fill="#000000" font-family="sans-serif" font-size="13" lengthAdjust="spacing" textLength="63.0068" x="403.0984" y="324.0669">&#171;include&#187;</text><text fill="#000000" font-family="sans-serif" font-size="13" lengthAdjust="spacing" textLength="114.1437" x="377.53" y="339.1997">(&#36024;&#20986;&#19978;&#38480;&#12481;&#12455;&#12483;&#12463;)</text></g><!--link UC3 to UC8--><g class="link" data-entity-1="UC3" data-entity-2="UC8" data-source-line="27" data-uid="lnk21" id="link_UC3_UC8"><path d="M296.94,254.04 C314.29,267.04 342.26,285.47 370.03,293 C425.36,308.01 442.66,303.48 499.03,293 C523.47,288.45 544.1606,280.6968 563.7606,271.8568" fill="none" id="UC3-to-UC8" style="stroke:#181818;stroke-width:1;stroke-dasharray:7,7;"/><polygon fill="#181818" points="569.23,269.39,559.3813,269.444,564.6721,271.4457,562.6704,276.7365,569.23,269.39" style="stroke:#181818;stroke-width:1;"/><text fill="#000000" font-family="sans-serif" font-size="13" lengthAdjust="spacing" textLength="63.0068" x="403.0984" y="274.0669">&#171;include&#187;</text><text fill="#000000" font-family="sans-serif" font-size="13" lengthAdjust="spacing" textLength="114.1437" x="377.53" y="289.1997">(&#21033;&#29992;&#21487;&#33021;&#29366;&#24907;&#30906;&#35469;)</text></g><!--link UC4 to UC1--><g class="link" data-entity-1="UC4" data-entity-2="UC1" data-source-line="28" data-uid="lnk22" id="link_UC4_UC1"><path d="M319.81,102.85 C376.44,97.03 473.8116,87.0146 538.0016,80.4046" fill="none" id="UC4-to-UC1" style="stroke:#181818;stroke-width:1;stroke-dasharray:7,7;"/><polygon fill="#181818" points="543.97,79.79,534.6076,76.7329,538.9963,80.3022,535.4271,84.6909,543.97,79.79" style="stroke:#181818;stroke-width:1;"/><text fill="#000000" font-family="sans-serif" font-size="13" lengthAdjust="spacing" textLength="63.0068" x="403.0984" y="66.0669">&#171;include&#187;</text><text fill="#000000" font-family="sans-serif" font-size="13" lengthAdjust="spacing" textLength="127.1437" x="371.03" y="81.1997">(&#12518;&#12540;&#12470;&#12540;&#30331;&#37682;&#12364;&#24517;&#35201;)</text></g><!--link UC4 to UC8--><g class="link" data-entity-1="UC4" data-entity-2="UC8" data-source-line="29" data-uid="lnk23" id="link_UC4_UC8"><path d="M309.27,117.45 C320.17,122.53 331.82,129.6 340.03,139 C365.55,168.24 339.88,196.56 370.03,221 C393.91,240.36 464.8296,248.0207 523.2596,251.3307" fill="none" id="UC4-to-UC8" style="stroke:#181818;stroke-width:1;stroke-dasharray:7,7;"/><polygon fill="#181818" points="529.25,251.67,520.4906,247.1674,524.258,251.3872,520.0382,255.1546,529.25,251.67" style="stroke:#181818;stroke-width:1;"/><text fill="#000000" font-family="sans-serif" font-size="13" lengthAdjust="spacing" textLength="63.0068" x="403.0984" y="202.0669">&#171;include&#187;</text><text fill="#000000" font-family="sans-serif" font-size="13" lengthAdjust="spacing" textLength="88.1436" x="390.53" y="217.1997">(&#36024;&#20986;&#35352;&#37682;&#30906;&#35469;)</text></g><!--SRC=[dP8_Jy9068Vt-nGN9XqWaVynXCNLpRYvdALY0nRIbi4O4-W96i18b462YI88Q8maa202XWzpbfPlOQ4LJWkBIvVd-Trxx-yQPGyaACMWm8KF9HZY19QHk1WFn0Z7nv60Zc0SCH4KPdUauoWBfnZnuIWB06Aac01joiMpMcngoRGD8X7kYgmm9-NEkDoRr9hAJMK6jxbz0GaSuW6OdqDfwbj5BMI8_4xa3u8p13_Ou0c0C26o319ra-0wmKCYT_MlMXfCycrZvjO6RHb4QrGdfPh9dJGVtxqI-Lf9tXCvI-ISgRYiYZOgabJ9vEubl3DKqa-wiZZ5isJG08-hPxyiBsrfxPvotl_gPIUb0i4f8ZS8naHkcQwFTeskbQkMXZ_LR7USpgcFVUtbqdJzu1I0wGj0kpquhGLkGgCDOppDd0kcRp8hoogvTEbFNJHspx5H5PW_i2bu5WBLbKNpBiPGPUchw1TmE7us2GGudeacGcmmkCUlMVy5aiehexHMJwrJGPybkAflEkMtf5OrFqsv_tj9zyfnnYMrvgqUCGTz0m00]--></g></svg>