<svg xmlns="http://www.w3.org/2000/svg" xmlns:xlink="http://www.w3.org/1999/xlink" contentStyleType="text/css" data-diagram-type="STATE" height="848px" preserveAspectRatio="none" style="width:504px;height:848px;background:#FFFFFF;" version="1.1" viewBox="0 0 504 848" width="504px" zoomAndPan="magnify"><title>User&#12458;&#12502;&#12472;&#12455;&#12463;&#12488;&#12398;&#12473;&#12486;&#12540;&#12488;&#12510;&#12471;&#12531;&#22259;</title><defs/><g><g class="title" data-source-line="1"><text fill="#000000" font-family="sans-serif" font-size="14" font-weight="bold" lengthAdjust="spacing" textLength="246.0997" x="122.1102" y="22.9951">User&#12458;&#12502;&#12472;&#12455;&#12463;&#12488;&#12398;&#12473;&#12486;&#12540;&#12488;&#12510;&#12471;&#12531;&#22259;</text></g><g id="..."><rect fill="#F1F1F1" height="64.2344" rx="12.5" ry="12.5" style="stroke:#181818;stroke-width:0.5;" width="135.4009" x="174.62" y="124.2969"/><line style="stroke:#181818;stroke-width:0.5;" x1="174.62" x2="310.0209" y1="150.5938" y2="150.5938"/><text fill="#000000" font-family="sans-serif" font-size="14" lengthAdjust="spacing" textLength="41.9998" x="221.3206" y="142.292">&#26410;&#30331;&#37682;</text><text fill="#000000" font-family="sans-serif" font-size="12" lengthAdjust="spacing" textLength="115.4009" x="179.62" y="166.7324">entry / &#26032;&#35215;&#12518;&#12540;&#12470;&#12540;</text><text fill="#000000" font-family="sans-serif" font-size="12" lengthAdjust="spacing" textLength="74.6312" x="179.62" y="180.7012">do / &#30331;&#37682;&#24453;&#12385;</text></g><g id="...."><rect fill="#F1F1F1" height="92.1719" rx="12.5" ry="12.5" style="stroke:#181818;stroke-width:0.5;" width="135.8281" x="174.4" y="280.5269"/><line style="stroke:#181818;stroke-width:0.5;" x1="174.4" x2="310.2281" y1="306.8237" y2="306.8237"/><text fill="#000000" font-family="sans-serif" font-size="14" lengthAdjust="spacing" textLength="55.9998" x="214.3142" y="298.522">&#30331;&#37682;&#28168;&#12415;</text><text fill="#000000" font-family="sans-serif" font-size="12" lengthAdjust="spacing" textLength="115.4009" x="179.4" y="322.9624">entry / &#21033;&#29992;&#21487;&#33021;&#29366;&#24907;</text><text fill="#000000" font-family="sans-serif" font-size="12" lengthAdjust="spacing" textLength="89.2266" x="179.4" y="336.9312">isActive = true</text><text fill="#000000" font-family="sans-serif" font-size="12" lengthAdjust="spacing" textLength="114.6745" x="179.4" y="350.8999">do / &#26412;&#12434;&#20511;&#12426;&#12427;/&#36820;&#12377;</text><text fill="#000000" font-family="sans-serif" font-size="12" lengthAdjust="spacing" textLength="115.8281" x="179.4" y="364.8687">canBorrow() = true</text></g><g id="...."><rect fill="#F1F1F1" height="78.2031" rx="12.5" ry="12.5" style="stroke:#181818;stroke-width:0.5;" width="142.6316" x="7" y="479.6969"/><line style="stroke:#181818;stroke-width:0.5;" x1="7" x2="149.6316" y1="505.9937" y2="505.9937"/><text fill="#000000" font-family="sans-serif" font-size="14" lengthAdjust="spacing" textLength="55.9998" x="50.3159" y="497.692">&#21033;&#29992;&#20572;&#27490;</text><text fill="#000000" font-family="sans-serif" font-size="12" lengthAdjust="spacing" textLength="115.4009" x="12" y="522.1324">entry / &#21033;&#29992;&#19981;&#21487;&#29366;&#24907;</text><text fill="#000000" font-family="sans-serif" font-size="12" lengthAdjust="spacing" textLength="93.1465" x="12" y="536.1012">isActive = false</text><text fill="#000000" font-family="sans-serif" font-size="12" lengthAdjust="spacing" textLength="122.6316" x="12" y="550.0699">do / &#26412;&#12434;&#20511;&#12426;&#12425;&#12428;&#12394;&#12356;</text></g><g id="...."><rect fill="#F1F1F1" height="78.2031" rx="12.5" ry="12.5" style="stroke:#181818;stroke-width:0.5;" width="111.4008" x="186.62" y="664.9069"/><line style="stroke:#181818;stroke-width:0.5;" x1="186.62" x2="298.0208" y1="691.2037" y2="691.2037"/><text fill="#000000" font-family="sans-serif" font-size="14" lengthAdjust="spacing" textLength="55.9998" x="214.3205" y="682.902">&#30331;&#37682;&#35299;&#38500;</text><text fill="#000000" font-family="sans-serif" font-size="12" lengthAdjust="spacing" textLength="91.4008" x="191.62" y="707.3424">entry / &#21066;&#38500;&#20966;&#29702;</text><text fill="#000000" font-family="sans-serif" font-size="12" lengthAdjust="spacing" textLength="84.0006" x="191.62" y="721.3112">&#36024;&#20986;&#35352;&#37682;&#12398;&#30906;&#35469;</text><text fill="#000000" font-family="sans-serif" font-size="12" lengthAdjust="spacing" textLength="86.6313" x="191.62" y="735.2799">do / &#12487;&#12540;&#12479;&#21066;&#38500;</text></g><ellipse cx="242.32" cy="53.2969" fill="#222222" rx="10" ry="10" style="stroke:#222222;stroke-width:1;"/><ellipse cx="242.32" cy="831.1069" fill="none" rx="11" ry="11" style="stroke:#222222;stroke-width:1;"/><ellipse cx="242.32" cy="831.1069" fill="#222222" rx="6" ry="6" style="stroke:#222222;stroke-width:1;"/><g class="entity" data-entity="GMN2" data-source-line="28" data-uid="ent0003" id="entity_GMN2"><path d="M344.82,306.4769 L344.82,322.6169 L310.64,326.6169 L344.82,330.6169 L344.82,346.7425 A0,0 0 0 0 344.82,346.7425 L469.8201,346.7425 A0,0 0 0 0 469.8201,346.7425 L469.8201,316.4769 L459.8201,306.4769 L344.82,306.4769 A0,0 0 0 0 344.82,306.4769" fill="#FEFFDD" style="stroke:#181818;stroke-width:0.5;"/><path d="M459.8201,306.4769 L459.8201,316.4769 L469.8201,316.4769 L459.8201,306.4769" fill="#FEFFDD" style="stroke:#181818;stroke-width:0.5;"/><text fill="#000000" font-family="sans-serif" font-size="13" lengthAdjust="spacing" textLength="104.0001" x="350.82" y="323.5438">&#36024;&#20986;&#19978;&#38480;&#20197;&#20869;&#12394;&#12425;</text><text fill="#000000" font-family="sans-serif" font-size="13" lengthAdjust="spacing" textLength="104.0001" x="350.82" y="338.6766">&#36861;&#21152;&#12391;&#20511;&#12426;&#12425;&#12428;&#12427;</text></g><g class="entity" data-entity="GMN5" data-source-line="33" data-uid="ent0006" id="entity_GMN5"><path d="M184.82,498.6669 L184.82,514.8069 L150.12,518.8069 L184.82,522.8069 L184.82,538.9325 A0,0 0 0 0 184.82,538.9325 L335.8202,538.9325 A0,0 0 0 0 335.8202,538.9325 L335.8202,508.6669 L325.8202,498.6669 L184.82,498.6669 A0,0 0 0 0 184.82,498.6669" fill="#FEFFDD" style="stroke:#181818;stroke-width:0.5;"/><path d="M325.8202,498.6669 L325.8202,508.6669 L335.8202,508.6669 L325.8202,498.6669" fill="#FEFFDD" style="stroke:#181818;stroke-width:0.5;"/><text fill="#000000" font-family="sans-serif" font-size="13" lengthAdjust="spacing" textLength="104.0001" x="190.82" y="515.7338">&#36024;&#20986;&#19978;&#38480;&#36229;&#36942;&#26178;&#12399;</text><text fill="#000000" font-family="sans-serif" font-size="13" lengthAdjust="spacing" textLength="130.0002" x="190.82" y="530.8666">&#33258;&#21205;&#30340;&#12395;&#21033;&#29992;&#20572;&#27490;&#29366;&#24907;</text></g><g class="entity" data-entity="GMN8" data-source-line="38" data-uid="ent0009" id="entity_GMN8"><path d="M333.32,683.8769 L333.32,700.0069 L298.41,704.0069 L333.32,708.0069 L333.32,724.1425 A0,0 0 0 0 333.32,724.1425 L497.3202,724.1425 A0,0 0 0 0 497.3202,724.1425 L497.3202,693.8769 L487.3202,683.8769 L333.32,683.8769 A0,0 0 0 0 333.32,683.8769" fill="#FEFFDD" style="stroke:#181818;stroke-width:0.5;"/><path d="M487.3202,683.8769 L487.3202,693.8769 L497.3202,693.8769 L487.3202,683.8769" fill="#FEFFDD" style="stroke:#181818;stroke-width:0.5;"/><text fill="#000000" font-family="sans-serif" font-size="13" lengthAdjust="spacing" textLength="143.0002" x="339.32" y="700.9438">&#36024;&#20986;&#20013;&#12398;&#26412;&#12364;&#12354;&#12427;&#22580;&#21512;&#12399;</text><text fill="#000000" font-family="sans-serif" font-size="13" lengthAdjust="spacing" textLength="78.0001" x="339.32" y="716.0766">&#30331;&#37682;&#35299;&#38500;&#19981;&#21487;</text></g><!--link *start* to ???--><g class="link" data-entity-1=".start." data-entity-2="..." data-source-line="3" data-uid="lnk3" id="link_.start._..."><path d="M242.32,63.6269 C242.32,77.2169 242.32,97.1069 242.32,117.9369" fill="none" id="*start*-to-&#26410;&#30331;&#37682;" style="stroke:#181818;stroke-width:1;"/><polygon fill="#181818" points="242.32,123.9369,246.32,114.9369,242.32,118.9369,238.32,114.9369,242.32,123.9369" style="stroke:#181818;stroke-width:1;"/></g><!--link ??? to ????--><g class="link" data-entity-1="..." data-entity-2="...." data-source-line="8" data-uid="lnk4" id="link_..._...."><path d="M242.32,188.6569 C242.32,214.3969 242.32,245.2669 242.32,274.2569" fill="none" id="&#26410;&#30331;&#37682;-to-&#30331;&#37682;&#28168;&#12415;" style="stroke:#181818;stroke-width:1;"/><polygon fill="#181818" points="242.32,280.2569,246.32,271.2569,242.32,275.2569,238.32,271.2569,242.32,280.2569" style="stroke:#181818;stroke-width:1;"/><text fill="#000000" font-family="sans-serif" font-size="13" lengthAdjust="spacing" textLength="78.0001" x="243.32" y="231.5938">&#12518;&#12540;&#12470;&#12540;&#30331;&#37682;</text><text fill="#000000" font-family="sans-serif" font-size="13" lengthAdjust="spacing" textLength="60.563" x="252.0386" y="246.7266">register()</text></g><!--link ???? to ????--><g class="link" data-entity-1="...." data-entity-2="...." data-source-line="13" data-uid="lnk5" id="link_...._...."><path d="M174.11,339.8969 C138.19,350.2069 97.16,368.9369 75.32,402.6969 C60.82,425.1069 61.1023,449.5596 65.8023,473.4596" fill="none" id="&#30331;&#37682;&#28168;&#12415;-to-&#21033;&#29992;&#20572;&#27490;" style="stroke:#181818;stroke-width:1;"/><polygon fill="#181818" points="66.96,479.3469,69.1482,469.7442,65.9952,474.4408,61.2986,471.2878,66.96,479.3469" style="stroke:#181818;stroke-width:1;"/><text fill="#000000" font-family="sans-serif" font-size="13" lengthAdjust="spacing" textLength="52.0001" x="111.3559" y="415.7638">&#21033;&#29992;&#20572;&#27490;</text><text fill="#000000" font-family="sans-serif" font-size="13" lengthAdjust="spacing" textLength="122.0719" x="76.32" y="430.8966">[&#36024;&#20986;&#19978;&#38480;&#36229;&#36942;&#12414;&#12383;&#12399;</text><text fill="#000000" font-family="sans-serif" font-size="13" lengthAdjust="spacing" textLength="83.0719" x="95.82" y="446.0294">&#12381;&#12398;&#20182;&#12398;&#29702;&#30001;]</text></g><!--link ???? to ????--><g class="link" data-entity-1="...." data-entity-2="...." data-source-line="17" data-uid="lnk6" id="link_...._...."><path d="M149.87,484.5869 C173.18,472.5769 195.17,459.5569 203.32,449.6969 C221.24,428.0069 229.738,403.8069 234.998,378.9469" fill="none" id="&#21033;&#29992;&#20572;&#27490;-to-&#30331;&#37682;&#28168;&#12415;" style="stroke:#181818;stroke-width:1;"/><polygon fill="#181818" points="236.24,373.0769,230.4636,381.0539,235.205,377.9686,238.2903,382.7099,236.24,373.0769" style="stroke:#181818;stroke-width:1;"/><text fill="#000000" font-family="sans-serif" font-size="13" lengthAdjust="spacing" textLength="52.0001" x="266.8918" y="423.2638">&#21033;&#29992;&#20877;&#38283;</text><text fill="#000000" font-family="sans-serif" font-size="13" lengthAdjust="spacing" textLength="127.1437" x="229.32" y="438.3966">[&#36024;&#20986;&#20874;&#25968;&#12364;&#19978;&#38480;&#20197;&#20869;]</text></g><!--link ???? to ????--><g class="link" data-entity-1="...." data-entity-2="...." data-source-line="19" data-uid="lnk7" id="link_...._...."><path d="M310.64,365.5569 C337.05,380.9169 361.83,396.4869 365.32,402.6969 C375.54,420.9169 366.47,428.8469 365.32,449.6969 C362.65,498.0169 369.39,512.2669 353.32,557.9069 C339.84,596.1669 328.95,602.6769 304.32,634.9069 C296.65,644.9369 291.8185,650.8113 283.2685,660.2913" fill="none" id="&#30331;&#37682;&#28168;&#12415;-to-&#30331;&#37682;&#35299;&#38500;" style="stroke:#181818;stroke-width:1;"/><polygon fill="#181818" points="279.25,664.7469,288.2481,660.7425,282.5987,661.0339,282.3073,655.3846,279.25,664.7469" style="stroke:#181818;stroke-width:1;"/><text fill="#000000" font-family="sans-serif" font-size="13" lengthAdjust="spacing" textLength="52.0001" x="397.3918" y="508.3738">&#30331;&#37682;&#35299;&#38500;</text><text fill="#000000" font-family="sans-serif" font-size="13" lengthAdjust="spacing" textLength="77.0415" x="384.8711" y="523.5066">unregister()</text><text fill="#000000" font-family="sans-serif" font-size="13" lengthAdjust="spacing" textLength="114.1437" x="366.32" y="538.6394">[&#36024;&#20986;&#20013;&#12398;&#26412;&#12364;&#12394;&#12356;]</text></g><!--link ???? to ????--><g class="link" data-entity-1="...." data-entity-2="...." data-source-line="20" data-uid="lnk8" id="link_...._...."><path d="M112.7,558.2069 C140.69,589.4769 175.9977,628.9268 203.9777,660.1768" fill="none" id="&#21033;&#29992;&#20572;&#27490;-to-&#30331;&#37682;&#35299;&#38500;" style="stroke:#181818;stroke-width:1;"/><polygon fill="#181818" points="207.98,664.6469,204.9566,655.2736,204.6447,660.9218,198.9965,660.61,207.98,664.6469" style="stroke:#181818;stroke-width:1;"/><text fill="#000000" font-family="sans-serif" font-size="13" lengthAdjust="spacing" textLength="52.0001" x="212.3918" y="600.9738">&#30331;&#37682;&#35299;&#38500;</text><text fill="#000000" font-family="sans-serif" font-size="13" lengthAdjust="spacing" textLength="77.0415" x="199.8711" y="616.1066">unregister()</text><text fill="#000000" font-family="sans-serif" font-size="13" lengthAdjust="spacing" textLength="114.1437" x="181.32" y="631.2394">[&#36024;&#20986;&#20013;&#12398;&#26412;&#12364;&#12394;&#12356;]</text></g><!--link ???? to *end*--><g class="link" data-entity-1="...." data-entity-2=".end." data-source-line="25" data-uid="lnk10" id="link_...._.end."><path d="M242.32,743.5569 C242.32,769.9769 242.32,797.1269 242.32,813.6869" fill="none" id="&#30331;&#37682;&#35299;&#38500;-to-*end*" style="stroke:#181818;stroke-width:1;"/><polygon fill="#181818" points="242.32,819.6869,246.32,810.6869,242.32,814.6869,238.32,810.6869,242.32,819.6869" style="stroke:#181818;stroke-width:1;"/><text fill="#000000" font-family="sans-serif" font-size="13" lengthAdjust="spacing" textLength="52.0001" x="243.32" y="786.1738">&#21066;&#38500;&#23436;&#20102;</text></g><!--SRC=[fLDDRzf04BtlhzXZKYdAFL8hjV-XfvX3b3WfKhH8nccLMtOT3DZGe8gWqjBceocaj0bfKb4AJVWnmzhcNtIN1RIsoAcNrQvdtfitRyPssjurySkiQG5hWrC3rWFM0jO1fm3q6jWVS5nm_igdyndORt3k-CSxXDQVfF3AoZCSDDfXVJ0ktI8ql-8rR1BRsiUhEAZTHCqZS9gIWtN56KlRoeWSzU8FEQ1dEekaLzUW9yGCHRvEf486iSoTTDOshQLbX1BfCnMyy2siNlAZJkJSXrutoFa6IMUVRzhfroP-Ycrhpqn29yg2nWzWx_Z12J0FcByQ3Qj0wmRPt20lCfQLUREqF8F7yLBwj2Xj15VdWb1_6cGzkktnV7_KyyRrIjJDZUbRe0z0Ju1s30Bqap1_DAY9CwouOVLd2YNeugsDUcNHtOBMjZTsisOIkw2t8h0Iq3RGGnJFNZ24QTmjZsl-l1FkUi7n3T2IQcaq-ChTN6g1BUf3rFeohby8Clrfa3rjcff9Ly87gPTEDQOUq_Y_j2X1CtUvA9gwuFccc8P153wwV2zIvOJE-r6xd8HEJ0OdFzdNeI98y4lTyZzQc_5VbqPz5o6IiKrifNTUsJYp7NCVOQmlZd9PYcT56HhUS-yKQ2isLUOZasnXIPgarbrCKAkT3EfCBAGCvTlSFmu_70BzhgFKoZrQG6zNAw0RpuH0VlgBLmggaWvHQprd_mS0]--></g></svg>