<svg xmlns="http://www.w3.org/2000/svg" xmlns:xlink="http://www.w3.org/1999/xlink" contentStyleType="text/css" data-diagram-type="SEQUENCE" height="1407px" preserveAspectRatio="none" style="width:1002px;height:1407px;background:#FFFFFF;" version="1.1" viewBox="0 0 1002 1407" width="1002px" zoomAndPan="magnify"><title>&#26412;&#12434;&#36820;&#12377;&#12471;&#12490;&#12522;&#12458;</title><defs/><g><text fill="#000000" font-family="sans-serif" font-size="14" font-weight="bold" lengthAdjust="spacing" textLength="111.9995" x="446.1729" y="27.9951">&#26412;&#12434;&#36820;&#12377;&#12471;&#12490;&#12522;&#12458;</text><g><title>...</title><rect fill="#FFFFFF" height="111.5313" style="stroke:#181818;stroke-width:1;" width="10" x="281.5123" y="149.7266"/></g><g><title>....</title><rect fill="#FFFFFF" height="29.1328" style="stroke:#181818;stroke-width:1;" width="10" x="533.345" y="178.8594"/></g><g><title>....</title><rect fill="#FFFFFF" height="71.2656" style="stroke:#181818;stroke-width:1;" width="10" x="533.345" y="305.1953"/></g><g><title>....</title><rect fill="#FFFFFF" height="113.3984" style="stroke:#181818;stroke-width:1;" width="10" x="533.345" y="405.5938"/></g><g><title>....</title><rect fill="#FFFFFF" height="242.8672" style="stroke:#181818;stroke-width:1;" width="10" x="533.345" y="791.0547"/></g><g><title>.</title><rect fill="#FFFFFF" height="155.5313" style="stroke:#181818;stroke-width:1;" width="10" x="723.3452" y="548.125"/></g><g><title>.</title><rect fill="#FFFFFF" height="254.7344" style="stroke:#181818;stroke-width:1;" width="10" x="723.3452" y="1055.0547"/></g><g><title>.</title><rect fill="#FFFFFF" height="71.2656" style="stroke:#181818;stroke-width:1;" width="10" x="728.3452" y="1179.5859"/></g><g><title>...</title><rect fill="#FFFFFF" height="29.1328" style="stroke:#181818;stroke-width:1;" width="10" x="952.3454" y="732.7891"/></g><rect fill="none" height="1086.7969" style="stroke:#000000;stroke-width:1.5;" width="985.3453" x="10" y="222.9922"/><rect fill="none" height="178.7344" style="stroke:#000000;stroke-width:1.5;" width="563.3449" x="20" y="848.1875"/><rect fill="none" height="190.6016" style="stroke:#000000;stroke-width:1.5;" width="660.2693" x="248.5124" y="1112.1875"/><g><title>...</title><rect fill="#000000" fill-opacity="0.00000" height="1208.1953" width="8" x="49.9999" y="118.5938"/><line style="stroke:#181818;stroke-width:0.5;stroke-dasharray:5,5;" x1="53" x2="53" y1="118.5938" y2="1326.7891"/></g><g><title>...</title><rect fill="#000000" fill-opacity="0.00000" height="1208.1953" width="8" x="282.5123" y="118.5938"/><line style="stroke:#181818;stroke-width:0.5;stroke-dasharray:5,5;" x1="285.5124" x2="285.5124" y1="118.5938" y2="1326.7891"/></g><g><title>....</title><rect fill="#000000" fill-opacity="0.00000" height="1208.1953" width="8" x="534.345" y="118.5938"/><line style="stroke:#181818;stroke-width:0.5;stroke-dasharray:5,5;" x1="537.3451" x2="537.3451" y1="118.5938" y2="1326.7891"/></g><g><title>.</title><rect fill="#000000" fill-opacity="0.00000" height="1208.1953" width="8" x="724.3452" y="118.5938"/><line style="stroke:#181818;stroke-width:0.5;stroke-dasharray:5,5;" x1="727.3452" x2="727.3452" y1="118.5938" y2="1326.7891"/></g><g><title>...</title><rect fill="#000000" fill-opacity="0.00000" height="1208.1953" width="8" x="953.3454" y="118.5938"/><line style="stroke:#181818;stroke-width:0.5;stroke-dasharray:5,5;" x1="956.3455" x2="956.3455" y1="118.5938" y2="1326.7891"/></g><g class="participant participant-head" data-participant="User"><text fill="#000000" font-family="sans-serif" font-size="14" lengthAdjust="spacing" textLength="41.9998" x="30" y="115.292">&#21033;&#29992;&#32773;</text><ellipse cx="53.9999" cy="50.7969" fill="#E2E2F0" rx="8" ry="8" style="stroke:#181818;stroke-width:0.5;"/><path d="M53.9999,58.7969 L53.9999,85.7969 M40.9999,66.7969 L66.9999,66.7969 M53.9999,85.7969 L40.9999,100.7969 M53.9999,85.7969 L66.9999,100.7969" fill="none" style="stroke:#181818;stroke-width:0.5;"/></g><g class="participant participant-tail" data-participant="User"><text fill="#000000" font-family="sans-serif" font-size="14" lengthAdjust="spacing" textLength="41.9998" x="30" y="1338.7842">&#21033;&#29992;&#32773;</text><ellipse cx="53.9999" cy="1350.5859" fill="#E2E2F0" rx="8" ry="8" style="stroke:#181818;stroke-width:0.5;"/><path d="M53.9999,1358.5859 L53.9999,1385.5859 M40.9999,1366.5859 L66.9999,1366.5859 M53.9999,1385.5859 L40.9999,1400.5859 M53.9999,1385.5859 L66.9999,1400.5859" fill="none" style="stroke:#181818;stroke-width:0.5;"/></g><g class="participant participant-head" data-participant="Library"><rect fill="#E2E2F0" height="30.2969" rx="2.5" ry="2.5" style="stroke:#181818;stroke-width:0.5;" width="55.9998" x="258.5124" y="87.2969"/><text fill="#000000" font-family="sans-serif" font-size="14" lengthAdjust="spacing" textLength="41.9998" x="265.5124" y="107.292">&#22259;&#26360;&#39208;</text></g><g class="participant participant-tail" data-participant="Library"><rect fill="#E2E2F0" height="30.2969" rx="2.5" ry="2.5" style="stroke:#181818;stroke-width:0.5;" width="55.9998" x="258.5124" y="1325.7891"/><text fill="#000000" font-family="sans-serif" font-size="14" lengthAdjust="spacing" textLength="41.9998" x="265.5124" y="1345.7842">&#22259;&#26360;&#39208;</text></g><g class="participant participant-head" data-participant="LoanRecord"><rect fill="#E2E2F0" height="30.2969" rx="2.5" ry="2.5" style="stroke:#181818;stroke-width:0.5;" width="69.9998" x="503.3451" y="87.2969"/><text fill="#000000" font-family="sans-serif" font-size="14" lengthAdjust="spacing" textLength="55.9998" x="510.3451" y="107.292">&#36024;&#20986;&#35352;&#37682;</text></g><g class="participant participant-tail" data-participant="LoanRecord"><rect fill="#E2E2F0" height="30.2969" rx="2.5" ry="2.5" style="stroke:#181818;stroke-width:0.5;" width="69.9998" x="503.3451" y="1325.7891"/><text fill="#000000" font-family="sans-serif" font-size="14" lengthAdjust="spacing" textLength="55.9998" x="510.3451" y="1345.7842">&#36024;&#20986;&#35352;&#37682;</text></g><g class="participant participant-head" data-participant="Book"><rect fill="#E2E2F0" height="30.2969" rx="2.5" ry="2.5" style="stroke:#181818;stroke-width:0.5;" width="27.9999" x="714.3452" y="87.2969"/><text fill="#000000" font-family="sans-serif" font-size="14" lengthAdjust="spacing" textLength="13.9999" x="721.3452" y="107.292">&#26412;</text></g><g class="participant participant-tail" data-participant="Book"><rect fill="#E2E2F0" height="30.2969" rx="2.5" ry="2.5" style="stroke:#181818;stroke-width:0.5;" width="27.9999" x="714.3452" y="1325.7891"/><text fill="#000000" font-family="sans-serif" font-size="14" lengthAdjust="spacing" textLength="13.9999" x="721.3452" y="1345.7842">&#26412;</text></g><g class="participant participant-head" data-participant="UserObj"><rect fill="#E2E2F0" height="30.2969" rx="2.5" ry="2.5" style="stroke:#181818;stroke-width:0.5;" width="55.9998" x="929.3455" y="87.2969"/><text fill="#000000" font-family="sans-serif" font-size="14" lengthAdjust="spacing" textLength="41.9998" x="936.3455" y="107.292">&#21033;&#29992;&#32773;</text></g><g class="participant participant-tail" data-participant="UserObj"><rect fill="#E2E2F0" height="30.2969" rx="2.5" ry="2.5" style="stroke:#181818;stroke-width:0.5;" width="55.9998" x="929.3455" y="1325.7891"/><text fill="#000000" font-family="sans-serif" font-size="14" lengthAdjust="spacing" textLength="41.9998" x="936.3455" y="1345.7842">&#21033;&#29992;&#32773;</text></g><g><title>...</title><rect fill="#FFFFFF" height="111.5313" style="stroke:#181818;stroke-width:1;" width="10" x="281.5123" y="149.7266"/></g><g><title>....</title><rect fill="#FFFFFF" height="29.1328" style="stroke:#181818;stroke-width:1;" width="10" x="533.345" y="178.8594"/></g><g><title>....</title><rect fill="#FFFFFF" height="71.2656" style="stroke:#181818;stroke-width:1;" width="10" x="533.345" y="305.1953"/></g><g><title>....</title><rect fill="#FFFFFF" height="113.3984" style="stroke:#181818;stroke-width:1;" width="10" x="533.345" y="405.5938"/></g><g><title>....</title><rect fill="#FFFFFF" height="242.8672" style="stroke:#181818;stroke-width:1;" width="10" x="533.345" y="791.0547"/></g><g><title>.</title><rect fill="#FFFFFF" height="155.5313" style="stroke:#181818;stroke-width:1;" width="10" x="723.3452" y="548.125"/></g><g><title>.</title><rect fill="#FFFFFF" height="254.7344" style="stroke:#181818;stroke-width:1;" width="10" x="723.3452" y="1055.0547"/></g><g><title>.</title><rect fill="#FFFFFF" height="71.2656" style="stroke:#181818;stroke-width:1;" width="10" x="728.3452" y="1179.5859"/></g><g><title>...</title><rect fill="#FFFFFF" height="29.1328" style="stroke:#181818;stroke-width:1;" width="10" x="952.3454" y="732.7891"/></g><g class="message" data-participant-1="User" data-participant-2="Library"><polygon fill="#181818" points="269.5123,145.7266,279.5123,149.7266,269.5123,153.7266,273.5123,149.7266" style="stroke:#181818;stroke-width:1;"/><line style="stroke:#181818;stroke-width:1;" x1="53.9999" x2="275.5123" y1="149.7266" y2="149.7266"/><text fill="#000000" font-family="sans-serif" font-size="13" lengthAdjust="spacing" textLength="102.0005" x="60.9999" y="144.6606">&#26412;&#12434;&#36820;&#12377;(loanId)</text></g><g class="message" data-participant-1="Library" data-participant-2="LoanRecord"><polygon fill="#181818" points="521.345,174.8594,531.345,178.8594,521.345,182.8594,525.345,178.8594" style="stroke:#181818;stroke-width:1;"/><line style="stroke:#181818;stroke-width:1;" x1="291.5123" x2="527.345" y1="178.8594" y2="178.8594"/><text fill="#000000" font-family="sans-serif" font-size="13" lengthAdjust="spacing" textLength="128.0006" x="298.5123" y="173.7935">&#36024;&#20986;&#35352;&#37682;&#26908;&#32034;(loanId)</text></g><g class="message" data-participant-1="LoanRecord" data-participant-2="Library"><polygon fill="#181818" points="302.5123,203.9922,292.5123,207.9922,302.5123,211.9922,298.5123,207.9922" style="stroke:#181818;stroke-width:1;"/><line style="stroke:#181818;stroke-width:1;stroke-dasharray:2,2;" x1="296.5123" x2="537.345" y1="207.9922" y2="207.9922"/><text fill="#000000" font-family="sans-serif" font-size="13" lengthAdjust="spacing" textLength="217.8327" x="308.5123" y="202.9263">LoanRecord&#12458;&#12502;&#12472;&#12455;&#12463;&#12488;&#12414;&#12383;&#12399;null</text></g><path d="M10,222.9922 L74.4429,222.9922 L74.4429,230.125 L64.4429,240.125 L10,240.125 L10,222.9922" fill="#EEEEEE" style="stroke:#000000;stroke-width:1.5;"/><rect fill="none" height="1086.7969" style="stroke:#000000;stroke-width:1.5;" width="985.3453" x="10" y="222.9922"/><text fill="#000000" font-family="sans-serif" font-size="13" font-weight="bold" lengthAdjust="spacing" textLength="19.4429" x="25" y="236.0591">alt</text><text fill="#000000" font-family="sans-serif" font-size="11" font-weight="bold" lengthAdjust="spacing" textLength="131.0538" x="89.4429" y="235.2026">[&#36024;&#20986;&#35352;&#37682;&#12364;&#35211;&#12388;&#12363;&#12425;&#12394;&#12356;]</text><g class="message" data-participant-1="Library" data-participant-2="User"><polygon fill="#181818" points="64.9999,257.2578,54.9999,261.2578,64.9999,265.2578,60.9999,261.2578" style="stroke:#181818;stroke-width:1;"/><line style="stroke:#181818;stroke-width:1;stroke-dasharray:2,2;" x1="58.9999" x2="285.5123" y1="261.2578" y2="261.2578"/><text fill="#000000" font-family="sans-serif" font-size="13" lengthAdjust="spacing" textLength="203.5124" x="70.9999" y="256.1919">&#12456;&#12521;&#12540;: &#36024;&#20986;&#35352;&#37682;&#12364;&#35211;&#12388;&#12363;&#12426;&#12414;&#12379;&#12435;</text></g><line style="stroke:#000000;stroke-width:1;stroke-dasharray:2,2;" x1="10" x2="995.3453" y1="270.2578" y2="270.2578"/><text fill="#000000" font-family="sans-serif" font-size="11" font-weight="bold" lengthAdjust="spacing" textLength="120.0539" x="15" y="280.4683">[&#36024;&#20986;&#35352;&#37682;&#12364;&#35211;&#12388;&#12363;&#12387;&#12383;]</text><g class="message" data-participant-1="Library" data-participant-2="LoanRecord"><polygon fill="#181818" points="521.345,301.1953,531.345,305.1953,521.345,309.1953,525.345,305.1953" style="stroke:#181818;stroke-width:1;"/><line style="stroke:#181818;stroke-width:1;" x1="286.5123" x2="527.345" y1="305.1953" y2="305.1953"/><text fill="#000000" font-family="sans-serif" font-size="13" lengthAdjust="spacing" textLength="76.2861" x="293.5123" y="300.1294">isOverdue()</text></g><g class="message" data-participant-1="LoanRecord" data-participant-2="LoanRecord"><line style="stroke:#181818;stroke-width:1;" x1="543.345" x2="585.345" y1="334.3281" y2="334.3281"/><line style="stroke:#181818;stroke-width:1;" x1="585.345" x2="585.345" y1="334.3281" y2="347.3281"/><line style="stroke:#181818;stroke-width:1;" x1="544.345" x2="585.345" y1="347.3281" y2="347.3281"/><polygon fill="#181818" points="554.345,343.3281,544.345,347.3281,554.345,351.3281,550.345,347.3281" style="stroke:#181818;stroke-width:1;"/><text fill="#000000" font-family="sans-serif" font-size="13" lengthAdjust="spacing" textLength="156.0002" x="550.345" y="329.2622">&#29694;&#22312;&#26085;&#20184;&#12392;&#36820;&#21364;&#26399;&#38480;&#12434;&#27604;&#36611;</text></g><g class="message" data-participant-1="LoanRecord" data-participant-2="Library"><polygon fill="#181818" points="297.5123,372.4609,287.5123,376.4609,297.5123,380.4609,293.5123,376.4609" style="stroke:#181818;stroke-width:1;"/><line style="stroke:#181818;stroke-width:1;stroke-dasharray:2,2;" x1="291.5123" x2="537.345" y1="376.4609" y2="376.4609"/><text fill="#000000" font-family="sans-serif" font-size="13" lengthAdjust="spacing" textLength="78.0001" x="303.5123" y="371.395">&#24310;&#28382;&#21028;&#23450;&#32080;&#26524;</text></g><g class="message" data-participant-1="Library" data-participant-2="LoanRecord"><polygon fill="#181818" points="521.345,401.5938,531.345,405.5938,521.345,409.5938,525.345,405.5938" style="stroke:#181818;stroke-width:1;"/><line style="stroke:#181818;stroke-width:1;" x1="286.5123" x2="527.345" y1="405.5938" y2="405.5938"/><text fill="#000000" font-family="sans-serif" font-size="13" lengthAdjust="spacing" textLength="171.5137" x="293.5123" y="400.5278">markAsReturned(&#29694;&#22312;&#26085;&#20184;)</text></g><g class="message" data-participant-1="LoanRecord" data-participant-2="LoanRecord"><line style="stroke:#181818;stroke-width:1;" x1="543.345" x2="585.345" y1="434.7266" y2="434.7266"/><line style="stroke:#181818;stroke-width:1;" x1="585.345" x2="585.345" y1="434.7266" y2="447.7266"/><line style="stroke:#181818;stroke-width:1;" x1="544.345" x2="585.345" y1="447.7266" y2="447.7266"/><polygon fill="#181818" points="554.345,443.7266,544.345,447.7266,554.345,451.7266,550.345,447.7266" style="stroke:#181818;stroke-width:1;"/><text fill="#000000" font-family="sans-serif" font-size="13" lengthAdjust="spacing" textLength="142.4922" x="550.345" y="429.6606">returnDate = &#29694;&#22312;&#26085;&#20184;</text></g><g class="message" data-participant-1="LoanRecord" data-participant-2="LoanRecord"><line style="stroke:#181818;stroke-width:1;" x1="543.345" x2="585.345" y1="476.8594" y2="476.8594"/><line style="stroke:#181818;stroke-width:1;" x1="585.345" x2="585.345" y1="476.8594" y2="489.8594"/><line style="stroke:#181818;stroke-width:1;" x1="544.345" x2="585.345" y1="489.8594" y2="489.8594"/><polygon fill="#181818" points="554.345,485.8594,544.345,489.8594,554.345,493.8594,550.345,489.8594" style="stroke:#181818;stroke-width:1;"/><text fill="#000000" font-family="sans-serif" font-size="13" lengthAdjust="spacing" textLength="116.2256" x="550.345" y="471.7935">isOverdue = false</text></g><g class="message" data-participant-1="LoanRecord" data-participant-2="Library"><polygon fill="#181818" points="297.5123,514.9922,287.5123,518.9922,297.5123,522.9922,293.5123,518.9922" style="stroke:#181818;stroke-width:1;"/><line style="stroke:#181818;stroke-width:1;stroke-dasharray:2,2;" x1="291.5123" x2="537.345" y1="518.9922" y2="518.9922"/><text fill="#000000" font-family="sans-serif" font-size="13" lengthAdjust="spacing" textLength="52.0001" x="303.5123" y="513.9263">&#26356;&#26032;&#23436;&#20102;</text></g><g class="message" data-participant-1="Library" data-participant-2="Book"><polygon fill="#181818" points="711.3452,544.125,721.3452,548.125,711.3452,552.125,715.3452,548.125" style="stroke:#181818;stroke-width:1;"/><line style="stroke:#181818;stroke-width:1;" x1="286.5123" x2="717.3452" y1="548.125" y2="548.125"/><text fill="#000000" font-family="sans-serif" font-size="13" lengthAdjust="spacing" textLength="119.5137" x="293.5123" y="543.0591">markAsReturned()</text></g><g class="message" data-participant-1="Book" data-participant-2="Book"><line style="stroke:#181818;stroke-width:1;" x1="733.3452" x2="775.3452" y1="577.2578" y2="577.2578"/><line style="stroke:#181818;stroke-width:1;" x1="775.3452" x2="775.3452" y1="577.2578" y2="590.2578"/><line style="stroke:#181818;stroke-width:1;" x1="734.3452" x2="775.3452" y1="590.2578" y2="590.2578"/><polygon fill="#181818" points="744.3452,586.2578,734.3452,590.2578,744.3452,594.2578,740.3452,590.2578" style="stroke:#181818;stroke-width:1;"/><text fill="#000000" font-family="sans-serif" font-size="13" lengthAdjust="spacing" textLength="130.127" x="740.3452" y="572.1919">status = AVAILABLE</text></g><g class="message" data-participant-1="Book" data-participant-2="Book"><line style="stroke:#181818;stroke-width:1;" x1="733.3452" x2="775.3452" y1="619.3906" y2="619.3906"/><line style="stroke:#181818;stroke-width:1;" x1="775.3452" x2="775.3452" y1="619.3906" y2="632.3906"/><line style="stroke:#181818;stroke-width:1;" x1="734.3452" x2="775.3452" y1="632.3906" y2="632.3906"/><polygon fill="#181818" points="744.3452,628.3906,734.3452,632.3906,744.3452,636.3906,740.3452,632.3906" style="stroke:#181818;stroke-width:1;"/><text fill="#000000" font-family="sans-serif" font-size="13" lengthAdjust="spacing" textLength="99.6201" x="740.3452" y="614.3247">usageCount++</text></g><g class="message" data-participant-1="Book" data-participant-2="Book"><line style="stroke:#181818;stroke-width:1;" x1="733.3452" x2="775.3452" y1="661.5234" y2="661.5234"/><line style="stroke:#181818;stroke-width:1;" x1="775.3452" x2="775.3452" y1="661.5234" y2="674.5234"/><line style="stroke:#181818;stroke-width:1;" x1="734.3452" x2="775.3452" y1="674.5234" y2="674.5234"/><polygon fill="#181818" points="744.3452,670.5234,734.3452,674.5234,744.3452,678.5234,740.3452,674.5234" style="stroke:#181818;stroke-width:1;"/><text fill="#000000" font-family="sans-serif" font-size="13" lengthAdjust="spacing" textLength="158.2154" x="740.3452" y="656.4575">lastUsedDate = &#29694;&#22312;&#26085;&#20184;</text></g><g class="message" data-participant-1="Book" data-participant-2="Library"><polygon fill="#181818" points="297.5123,699.6563,287.5123,703.6563,297.5123,707.6563,293.5123,703.6563" style="stroke:#181818;stroke-width:1;"/><line style="stroke:#181818;stroke-width:1;stroke-dasharray:2,2;" x1="291.5123" x2="727.3452" y1="703.6563" y2="703.6563"/><text fill="#000000" font-family="sans-serif" font-size="13" lengthAdjust="spacing" textLength="52.0001" x="303.5123" y="698.5903">&#26356;&#26032;&#23436;&#20102;</text></g><g class="message" data-participant-1="Library" data-participant-2="UserObj"><polygon fill="#181818" points="940.3454,728.7891,950.3454,732.7891,940.3454,736.7891,944.3454,732.7891" style="stroke:#181818;stroke-width:1;"/><line style="stroke:#181818;stroke-width:1;" x1="286.5123" x2="946.3454" y1="732.7891" y2="732.7891"/><text fill="#000000" font-family="sans-serif" font-size="13" lengthAdjust="spacing" textLength="91.0001" x="293.5123" y="727.7231">&#36024;&#20986;&#35352;&#37682;&#12434;&#21066;&#38500;</text></g><g class="message" data-participant-1="UserObj" data-participant-2="Library"><polygon fill="#181818" points="297.5123,757.9219,287.5123,761.9219,297.5123,765.9219,293.5123,761.9219" style="stroke:#181818;stroke-width:1;"/><line style="stroke:#181818;stroke-width:1;stroke-dasharray:2,2;" x1="291.5123" x2="956.3454" y1="761.9219" y2="761.9219"/><text fill="#000000" font-family="sans-serif" font-size="13" lengthAdjust="spacing" textLength="52.0001" x="303.5123" y="756.856">&#26356;&#26032;&#23436;&#20102;</text></g><g class="message" data-participant-1="Library" data-participant-2="LoanRecord"><polygon fill="#181818" points="521.345,787.0547,531.345,791.0547,521.345,795.0547,525.345,791.0547" style="stroke:#181818;stroke-width:1;"/><line style="stroke:#181818;stroke-width:1;" x1="286.5123" x2="527.345" y1="791.0547" y2="791.0547"/><text fill="#000000" font-family="sans-serif" font-size="13" lengthAdjust="spacing" textLength="96.2559" x="293.5123" y="785.9888">calculateFine()</text></g><g class="message" data-participant-1="LoanRecord" data-participant-2="LoanRecord"><line style="stroke:#181818;stroke-width:1;" x1="543.345" x2="585.345" y1="820.1875" y2="820.1875"/><line style="stroke:#181818;stroke-width:1;" x1="585.345" x2="585.345" y1="820.1875" y2="833.1875"/><line style="stroke:#181818;stroke-width:1;" x1="544.345" x2="585.345" y1="833.1875" y2="833.1875"/><polygon fill="#181818" points="554.345,829.1875,544.345,833.1875,554.345,837.1875,550.345,833.1875" style="stroke:#181818;stroke-width:1;"/><text fill="#000000" font-family="sans-serif" font-size="13" lengthAdjust="spacing" textLength="91.0001" x="550.345" y="815.1216">&#24310;&#28382;&#26085;&#25968;&#12434;&#35336;&#31639;</text></g><path d="M20,848.1875 L84.4429,848.1875 L84.4429,855.3203 L74.4429,865.3203 L20,865.3203 L20,848.1875" fill="#EEEEEE" style="stroke:#000000;stroke-width:1.5;"/><rect fill="none" height="178.7344" style="stroke:#000000;stroke-width:1.5;" width="563.3449" x="20" y="848.1875"/><text fill="#000000" font-family="sans-serif" font-size="13" font-weight="bold" lengthAdjust="spacing" textLength="19.4429" x="35" y="861.2544">alt</text><text fill="#000000" font-family="sans-serif" font-size="11" font-weight="bold" lengthAdjust="spacing" textLength="76.0542" x="99.4429" y="860.3979">[&#24310;&#28382;&#12375;&#12390;&#12356;&#12427;]</text><g class="message" data-participant-1="LoanRecord" data-participant-2="Library"><polygon fill="#181818" points="297.5123,882.4531,287.5123,886.4531,297.5123,890.4531,293.5123,886.4531" style="stroke:#181818;stroke-width:1;"/><line style="stroke:#181818;stroke-width:1;stroke-dasharray:2,2;" x1="291.5123" x2="532.345" y1="886.4531" y2="886.4531"/><text fill="#000000" font-family="sans-serif" font-size="13" lengthAdjust="spacing" textLength="52.0001" x="303.5123" y="881.3872">&#24310;&#28382;&#26009;&#37329;</text></g><g class="message" data-participant-1="Library" data-participant-2="User"><polygon fill="#181818" points="64.9999,926.7188,54.9999,930.7188,64.9999,934.7188,60.9999,930.7188" style="stroke:#181818;stroke-width:1;"/><line style="stroke:#181818;stroke-width:1;stroke-dasharray:2,2;" x1="58.9999" x2="285.5123" y1="930.7188" y2="930.7188"/><text fill="#000000" font-family="sans-serif" font-size="13" lengthAdjust="spacing" textLength="52.0001" x="70.9999" y="910.52">&#36820;&#21364;&#23436;&#20102;</text><text fill="#000000" font-family="sans-serif" font-size="13" lengthAdjust="spacing" textLength="100.2296" x="70.9999" y="925.6528">&#24310;&#28382;&#26009;&#37329;: XXX&#20870;</text></g><line style="stroke:#000000;stroke-width:1;stroke-dasharray:2,2;" x1="20" x2="583.3449" y1="939.7188" y2="939.7188"/><text fill="#000000" font-family="sans-serif" font-size="11" font-weight="bold" lengthAdjust="spacing" textLength="76.0542" x="25" y="949.9292">[&#26399;&#38480;&#20869;&#12395;&#36820;&#21364;]</text><g class="message" data-participant-1="LoanRecord" data-participant-2="Library"><polygon fill="#181818" points="297.5123,970.6563,287.5123,974.6563,297.5123,978.6563,293.5123,974.6563" style="stroke:#181818;stroke-width:1;"/><line style="stroke:#181818;stroke-width:1;stroke-dasharray:2,2;" x1="291.5123" x2="532.345" y1="974.6563" y2="974.6563"/><text fill="#000000" font-family="sans-serif" font-size="13" lengthAdjust="spacing" textLength="78.0001" x="303.5123" y="969.5903">&#24310;&#28382;&#26009;&#37329;&#12394;&#12375;</text></g><g class="message" data-participant-1="Library" data-participant-2="User"><polygon fill="#181818" points="64.9999,1014.9219,54.9999,1018.9219,64.9999,1022.9219,60.9999,1018.9219" style="stroke:#181818;stroke-width:1;"/><line style="stroke:#181818;stroke-width:1;stroke-dasharray:2,2;" x1="58.9999" x2="285.5123" y1="1018.9219" y2="1018.9219"/><text fill="#000000" font-family="sans-serif" font-size="13" lengthAdjust="spacing" textLength="52.0001" x="70.9999" y="998.7231">&#36820;&#21364;&#23436;&#20102;</text><text fill="#000000" font-family="sans-serif" font-size="13" lengthAdjust="spacing" textLength="143.0002" x="70.9999" y="1013.856">&#12354;&#12426;&#12364;&#12392;&#12358;&#12372;&#12374;&#12356;&#12414;&#12375;&#12383;</text></g><g class="message" data-participant-1="Library" data-participant-2="Book"><polygon fill="#181818" points="711.3452,1051.0547,721.3452,1055.0547,711.3452,1059.0547,715.3452,1055.0547" style="stroke:#181818;stroke-width:1;"/><line style="stroke:#181818;stroke-width:1;" x1="286.5123" x2="717.3452" y1="1055.0547" y2="1055.0547"/><text fill="#000000" font-family="sans-serif" font-size="13" lengthAdjust="spacing" textLength="135.4844" x="293.5123" y="1049.9888">shouldBeDiscarded()</text></g><g class="message" data-participant-1="Book" data-participant-2="Book"><line style="stroke:#181818;stroke-width:1;" x1="733.3452" x2="775.3452" y1="1084.1875" y2="1084.1875"/><line style="stroke:#181818;stroke-width:1;" x1="775.3452" x2="775.3452" y1="1084.1875" y2="1097.1875"/><line style="stroke:#181818;stroke-width:1;" x1="734.3452" x2="775.3452" y1="1097.1875" y2="1097.1875"/><polygon fill="#181818" points="744.3452,1093.1875,734.3452,1097.1875,744.3452,1101.1875,740.3452,1097.1875" style="stroke:#181818;stroke-width:1;"/><text fill="#000000" font-family="sans-serif" font-size="13" lengthAdjust="spacing" textLength="195.0002" x="740.3452" y="1079.1216">&#30772;&#25613;&#12481;&#12455;&#12483;&#12463;&#12539;&#21033;&#29992;&#26399;&#38291;&#12481;&#12455;&#12483;&#12463;</text></g><path d="M248.5124,1112.1875 L312.9553,1112.1875 L312.9553,1119.3203 L302.9553,1129.3203 L248.5124,1129.3203 L248.5124,1112.1875" fill="#EEEEEE" style="stroke:#000000;stroke-width:1.5;"/><rect fill="none" height="190.6016" style="stroke:#000000;stroke-width:1.5;" width="660.2693" x="248.5124" y="1112.1875"/><text fill="#000000" font-family="sans-serif" font-size="13" font-weight="bold" lengthAdjust="spacing" textLength="19.4429" x="263.5124" y="1125.2544">alt</text><text fill="#000000" font-family="sans-serif" font-size="11" font-weight="bold" lengthAdjust="spacing" textLength="131.0538" x="327.9553" y="1124.3979">[&#24259;&#26820;&#26465;&#20214;&#12434;&#28288;&#12383;&#12375;&#12390;&#12356;&#12427;]</text><g class="message" data-participant-1="Book" data-participant-2="Library"><polygon fill="#181818" points="297.5123,1146.4531,287.5123,1150.4531,297.5123,1154.4531,293.5123,1150.4531" style="stroke:#181818;stroke-width:1;"/><line style="stroke:#181818;stroke-width:1;stroke-dasharray:2,2;" x1="291.5123" x2="722.3452" y1="1150.4531" y2="1150.4531"/><text fill="#000000" font-family="sans-serif" font-size="13" lengthAdjust="spacing" textLength="65.0001" x="303.5123" y="1145.3872">&#24259;&#26820;&#12364;&#24517;&#35201;</text></g><g class="message" data-participant-1="Library" data-participant-2="Book"><polygon fill="#181818" points="716.3452,1175.5859,726.3452,1179.5859,716.3452,1183.5859,720.3452,1179.5859" style="stroke:#181818;stroke-width:1;"/><line style="stroke:#181818;stroke-width:1;" x1="286.5123" x2="722.3452" y1="1179.5859" y2="1179.5859"/><text fill="#000000" font-family="sans-serif" font-size="13" lengthAdjust="spacing" textLength="57.4907" x="293.5123" y="1174.52">discard()</text></g><g class="message" data-participant-1="Book" data-participant-2="Book"><line style="stroke:#181818;stroke-width:1;" x1="738.3452" x2="780.3452" y1="1208.7188" y2="1208.7188"/><line style="stroke:#181818;stroke-width:1;" x1="780.3452" x2="780.3452" y1="1208.7188" y2="1221.7188"/><line style="stroke:#181818;stroke-width:1;" x1="739.3452" x2="780.3452" y1="1221.7188" y2="1221.7188"/><polygon fill="#181818" points="749.3452,1217.7188,739.3452,1221.7188,749.3452,1225.7188,745.3452,1221.7188" style="stroke:#181818;stroke-width:1;"/><text fill="#000000" font-family="sans-serif" font-size="13" lengthAdjust="spacing" textLength="136.4365" x="745.3452" y="1203.6528">status = DISCARDED</text></g><g class="message" data-participant-1="Book" data-participant-2="Library"><polygon fill="#181818" points="297.5123,1246.8516,287.5123,1250.8516,297.5123,1254.8516,293.5123,1250.8516" style="stroke:#181818;stroke-width:1;"/><line style="stroke:#181818;stroke-width:1;stroke-dasharray:2,2;" x1="291.5123" x2="722.3452" y1="1250.8516" y2="1250.8516"/><text fill="#000000" font-family="sans-serif" font-size="13" lengthAdjust="spacing" textLength="52.0001" x="303.5123" y="1245.7856">&#24259;&#26820;&#23436;&#20102;</text></g><line style="stroke:#000000;stroke-width:1;stroke-dasharray:2,2;" x1="248.5124" x2="908.7817" y1="1259.8516" y2="1259.8516"/><text fill="#000000" font-family="sans-serif" font-size="11" font-weight="bold" lengthAdjust="spacing" textLength="76.0542" x="253.5124" y="1270.062">[&#12414;&#12384;&#21033;&#29992;&#21487;&#33021;]</text><g class="message" data-participant-1="Book" data-participant-2="Library"><polygon fill="#181818" points="297.5123,1290.7891,287.5123,1294.7891,297.5123,1298.7891,293.5123,1294.7891" style="stroke:#181818;stroke-width:1;"/><line style="stroke:#181818;stroke-width:1;stroke-dasharray:2,2;" x1="291.5123" x2="722.3452" y1="1294.7891" y2="1294.7891"/><text fill="#000000" font-family="sans-serif" font-size="13" lengthAdjust="spacing" textLength="52.0001" x="303.5123" y="1289.7231">&#21033;&#29992;&#21487;&#33021;</text></g><!--SRC=[dLNBJjj05DtxAonM8CGFH6gbGAY4X8H4rOf5DqFijYwkW_n0wewn8GG8WW9DI9C2BIaDj2A8fXGH2XzpiUFyHSVZFEpOX81N8z_7d7Fkt7jLGHLvrYhy0dtJlja6d0FzBnWhO1o3VimmAAucPBRFJ1tLjals_68VYnJsXSBBp2oILI4kp2999VRyRoj_KI-Mg7rSc9QH_C7lOfzTc4kNTccddZvplH98ckJZ2PdpEn8mr3wSICnqt190CJ7zZc6S0plqj7bjn4UdNoJNZ7433XDX3gby2ntJED3G5fO8wmLg5GkrohUG76tixICxv0NH_a-412C3-WNeFq0lWv42V0ru3t1PqaIHuVYml0mILHyMm6dxS1Lm4V0gwCk0Zm4lC2pvMaJ8_OuO4HRq4XX7O5n5kgHOeJ3oe6_HB5uO3ObuKU7lJe0F20a_0B-IWZ8nnykSnlSFKBSmcZJS8w4_GstzsYoKhEpts-eEu18fgRbMiGfxzTm6gR1LthQlZ40ARnNCwhbLtJLJHVFaS-tFXhLR273rO-d6vpsIPwBA9AzgiiHp_LvmZoKeqsGn9-Q9Z-qzSIrfITXhHChKLGKhNx4of-P9-lOo-K3-JXS6c7UmfPtg_74ExI15HQgc483Hbz6nyUZm-6Y8awQWD_n8GfFKmS4GiuWKbJnfxYw5NEzUkRQ0Th9ip9AERj4tpUMLUgxePzkSEyxFnhbt1DxWRayjZiIu9fA8PuBq-FPnNp-Ho_fqwap4KgfsadLpaU7YMW5d0H-IKGBwAZNTtqvM9bTV-jXs3emVjqzT1Lv9tg08EpKrPIPTNUXuSRlPJ2u2_kd6FGW57OFPdh40rkdWIvDf0ZW9cEo8Z4FU6ONPvZpZ9UvHRQAyJMWYDyp712MEPAxdJgdjLwoDDJ2mio4CWow9ghlj77aoMrwJftw6TR1WVVbwMprtfk7bF5qg8UKCTeaRItGmRnRjGnpKhmcDSwaqY8IJwTBwiR7d8z79s6ZiNYoUVhchQ-bxePNQTyKnryksyQzRwawtaChIzCx_u0By3m00]--></g></svg>