<svg xmlns="http://www.w3.org/2000/svg" xmlns:xlink="http://www.w3.org/1999/xlink" contentStyleType="text/css" data-diagram-type="SEQUENCE" height="1051px" preserveAspectRatio="none" style="width:1044px;height:1051px;background:#FFFFFF;" version="1.1" viewBox="0 0 1044 1051" width="1044px" zoomAndPan="magnify"><title>&#26412;&#12434;&#20511;&#12426;&#12427;&#12471;&#12490;&#12522;&#12458;</title><defs/><g><text fill="#000000" font-family="sans-serif" font-size="14" font-weight="bold" lengthAdjust="spacing" textLength="125.9995" x="460.142" y="27.9951">&#26412;&#12434;&#20511;&#12426;&#12427;&#12471;&#12490;&#12522;&#12458;</text><g><title>...</title><rect fill="#FFFFFF" height="111.5313" style="stroke:#181818;stroke-width:1;" width="10" x="299.5124" y="149.7266"/></g><g><title>...</title><rect fill="#FFFFFF" height="29.1328" style="stroke:#181818;stroke-width:1;" width="10" x="464.0685" y="178.8594"/></g><g><title>...</title><rect fill="#FFFFFF" height="71.2656" style="stroke:#181818;stroke-width:1;" width="10" x="464.0685" y="305.1953"/></g><g><title>...</title><rect fill="#FFFFFF" height="29.1328" style="stroke:#181818;stroke-width:1;" width="10" x="464.0685" y="858.0625"/></g><g><title>.</title><rect fill="#FFFFFF" height="71.2656" style="stroke:#181818;stroke-width:1;" width="10" x="663.6535" y="488.7969"/></g><g><title>.</title><rect fill="#FFFFFF" height="71.2656" style="stroke:#181818;stroke-width:1;" width="10" x="663.6535" y="757.6641"/></g><g><title>....</title><rect fill="#FFFFFF" height="71.2656" style="stroke:#181818;stroke-width:1;" width="10" x="835.2834" y="657.2656"/></g><rect fill="none" height="730.4688" style="stroke:#000000;stroke-width:1.5;" width="1027.2835" x="10" y="222.9922"/><rect fill="none" height="555" style="stroke:#000000;stroke-width:1.5;" width="1007.2835" x="20" y="391.4609"/><rect fill="none" height="364.3984" style="stroke:#000000;stroke-width:1.5;" width="987.2835" x="30" y="575.0625"/><g><title>...</title><rect fill="#000000" fill-opacity="0.00000" height="851.8672" width="8" x="59.9999" y="118.5938"/><line style="stroke:#181818;stroke-width:0.5;stroke-dasharray:5,5;" x1="63" x2="63" y1="118.5938" y2="970.4609"/></g><g><title>...</title><rect fill="#000000" fill-opacity="0.00000" height="851.8672" width="8" x="300.5124" y="118.5938"/><line style="stroke:#181818;stroke-width:0.5;stroke-dasharray:5,5;" x1="303.5125" x2="303.5125" y1="118.5938" y2="970.4609"/></g><g><title>...</title><rect fill="#000000" fill-opacity="0.00000" height="851.8672" width="8" x="465.0685" y="118.5938"/><line style="stroke:#181818;stroke-width:0.5;stroke-dasharray:5,5;" x1="468.0686" x2="468.0686" y1="118.5938" y2="970.4609"/></g><g><title>.</title><rect fill="#000000" fill-opacity="0.00000" height="851.8672" width="8" x="664.6535" y="118.5938"/><line style="stroke:#181818;stroke-width:0.5;stroke-dasharray:5,5;" x1="667.6535" x2="667.6535" y1="118.5938" y2="970.4609"/></g><g><title>....</title><rect fill="#000000" fill-opacity="0.00000" height="851.8672" width="8" x="836.2834" y="118.5938"/><line style="stroke:#181818;stroke-width:0.5;stroke-dasharray:5,5;" x1="839.2835" x2="839.2835" y1="118.5938" y2="970.4609"/></g><g class="participant participant-head" data-participant="User"><text fill="#000000" font-family="sans-serif" font-size="14" lengthAdjust="spacing" textLength="41.9998" x="40" y="115.292">&#21033;&#29992;&#32773;</text><ellipse cx="63.9999" cy="50.7969" fill="#E2E2F0" rx="8" ry="8" style="stroke:#181818;stroke-width:0.5;"/><path d="M63.9999,58.7969 L63.9999,85.7969 M50.9999,66.7969 L76.9999,66.7969 M63.9999,85.7969 L50.9999,100.7969 M63.9999,85.7969 L76.9999,100.7969" fill="none" style="stroke:#181818;stroke-width:0.5;"/></g><g class="participant participant-tail" data-participant="User"><text fill="#000000" font-family="sans-serif" font-size="14" lengthAdjust="spacing" textLength="41.9998" x="40" y="982.4561">&#21033;&#29992;&#32773;</text><ellipse cx="63.9999" cy="994.2578" fill="#E2E2F0" rx="8" ry="8" style="stroke:#181818;stroke-width:0.5;"/><path d="M63.9999,1002.2578 L63.9999,1029.2578 M50.9999,1010.2578 L76.9999,1010.2578 M63.9999,1029.2578 L50.9999,1044.2578 M63.9999,1029.2578 L76.9999,1044.2578" fill="none" style="stroke:#181818;stroke-width:0.5;"/></g><g class="participant participant-head" data-participant="Library"><rect fill="#E2E2F0" height="30.2969" rx="2.5" ry="2.5" style="stroke:#181818;stroke-width:0.5;" width="55.9998" x="276.5125" y="87.2969"/><text fill="#000000" font-family="sans-serif" font-size="14" lengthAdjust="spacing" textLength="41.9998" x="283.5125" y="107.292">&#22259;&#26360;&#39208;</text></g><g class="participant participant-tail" data-participant="Library"><rect fill="#E2E2F0" height="30.2969" rx="2.5" ry="2.5" style="stroke:#181818;stroke-width:0.5;" width="55.9998" x="276.5125" y="969.4609"/><text fill="#000000" font-family="sans-serif" font-size="14" lengthAdjust="spacing" textLength="41.9998" x="283.5125" y="989.4561">&#22259;&#26360;&#39208;</text></g><g class="participant participant-head" data-participant="UserObj"><rect fill="#E2E2F0" height="30.2969" rx="2.5" ry="2.5" style="stroke:#181818;stroke-width:0.5;" width="55.9998" x="441.0686" y="87.2969"/><text fill="#000000" font-family="sans-serif" font-size="14" lengthAdjust="spacing" textLength="41.9998" x="448.0686" y="107.292">&#21033;&#29992;&#32773;</text></g><g class="participant participant-tail" data-participant="UserObj"><rect fill="#E2E2F0" height="30.2969" rx="2.5" ry="2.5" style="stroke:#181818;stroke-width:0.5;" width="55.9998" x="441.0686" y="969.4609"/><text fill="#000000" font-family="sans-serif" font-size="14" lengthAdjust="spacing" textLength="41.9998" x="448.0686" y="989.4561">&#21033;&#29992;&#32773;</text></g><g class="participant participant-head" data-participant="Book"><rect fill="#E2E2F0" height="30.2969" rx="2.5" ry="2.5" style="stroke:#181818;stroke-width:0.5;" width="27.9999" x="654.6535" y="87.2969"/><text fill="#000000" font-family="sans-serif" font-size="14" lengthAdjust="spacing" textLength="13.9999" x="661.6535" y="107.292">&#26412;</text></g><g class="participant participant-tail" data-participant="Book"><rect fill="#E2E2F0" height="30.2969" rx="2.5" ry="2.5" style="stroke:#181818;stroke-width:0.5;" width="27.9999" x="654.6535" y="969.4609"/><text fill="#000000" font-family="sans-serif" font-size="14" lengthAdjust="spacing" textLength="13.9999" x="661.6535" y="989.4561">&#26412;</text></g><g class="participant participant-head" data-participant="LoanRecord"><rect fill="#E2E2F0" height="30.2969" rx="2.5" ry="2.5" style="stroke:#181818;stroke-width:0.5;" width="69.9998" x="805.2835" y="87.2969"/><text fill="#000000" font-family="sans-serif" font-size="14" lengthAdjust="spacing" textLength="55.9998" x="812.2835" y="107.292">&#36024;&#20986;&#35352;&#37682;</text></g><g class="participant participant-tail" data-participant="LoanRecord"><rect fill="#E2E2F0" height="30.2969" rx="2.5" ry="2.5" style="stroke:#181818;stroke-width:0.5;" width="69.9998" x="805.2835" y="969.4609"/><text fill="#000000" font-family="sans-serif" font-size="14" lengthAdjust="spacing" textLength="55.9998" x="812.2835" y="989.4561">&#36024;&#20986;&#35352;&#37682;</text></g><g><title>...</title><rect fill="#FFFFFF" height="111.5313" style="stroke:#181818;stroke-width:1;" width="10" x="299.5124" y="149.7266"/></g><g><title>...</title><rect fill="#FFFFFF" height="29.1328" style="stroke:#181818;stroke-width:1;" width="10" x="464.0685" y="178.8594"/></g><g><title>...</title><rect fill="#FFFFFF" height="71.2656" style="stroke:#181818;stroke-width:1;" width="10" x="464.0685" y="305.1953"/></g><g><title>...</title><rect fill="#FFFFFF" height="29.1328" style="stroke:#181818;stroke-width:1;" width="10" x="464.0685" y="858.0625"/></g><g><title>.</title><rect fill="#FFFFFF" height="71.2656" style="stroke:#181818;stroke-width:1;" width="10" x="663.6535" y="488.7969"/></g><g><title>.</title><rect fill="#FFFFFF" height="71.2656" style="stroke:#181818;stroke-width:1;" width="10" x="663.6535" y="757.6641"/></g><g><title>....</title><rect fill="#FFFFFF" height="71.2656" style="stroke:#181818;stroke-width:1;" width="10" x="835.2834" y="657.2656"/></g><g class="message" data-participant-1="User" data-participant-2="Library"><polygon fill="#181818" points="287.5124,145.7266,297.5124,149.7266,287.5124,153.7266,291.5124,149.7266" style="stroke:#181818;stroke-width:1;"/><line style="stroke:#181818;stroke-width:1;" x1="63.9999" x2="293.5124" y1="149.7266" y2="149.7266"/><text fill="#000000" font-family="sans-serif" font-size="13" lengthAdjust="spacing" textLength="167.6226" x="70.9999" y="144.6606">&#26412;&#12434;&#20511;&#12426;&#12427;(userId, bookId)</text></g><g class="message" data-participant-1="Library" data-participant-2="UserObj"><polygon fill="#181818" points="452.0685,174.8594,462.0685,178.8594,452.0685,182.8594,456.0685,178.8594" style="stroke:#181818;stroke-width:1;"/><line style="stroke:#181818;stroke-width:1;" x1="309.5124" x2="458.0685" y1="178.8594" y2="178.8594"/><text fill="#000000" font-family="sans-serif" font-size="13" lengthAdjust="spacing" textLength="104.895" x="316.5124" y="173.7935">findUser(userId)</text></g><g class="message" data-participant-1="UserObj" data-participant-2="Library"><polygon fill="#181818" points="320.5124,203.9922,310.5124,207.9922,320.5124,211.9922,316.5124,207.9922" style="stroke:#181818;stroke-width:1;"/><line style="stroke:#181818;stroke-width:1;stroke-dasharray:2,2;" x1="314.5124" x2="468.0685" y1="207.9922" y2="207.9922"/><text fill="#000000" font-family="sans-serif" font-size="13" lengthAdjust="spacing" textLength="107.631" x="326.5124" y="202.9263">User&#12458;&#12502;&#12472;&#12455;&#12463;&#12488;</text></g><path d="M10,222.9922 L74.4429,222.9922 L74.4429,230.125 L64.4429,240.125 L10,240.125 L10,222.9922" fill="#EEEEEE" style="stroke:#000000;stroke-width:1.5;"/><rect fill="none" height="730.4688" style="stroke:#000000;stroke-width:1.5;" width="1027.2835" x="10" y="222.9922"/><text fill="#000000" font-family="sans-serif" font-size="13" font-weight="bold" lengthAdjust="spacing" textLength="19.4429" x="25" y="236.0591">alt</text><text fill="#000000" font-family="sans-serif" font-size="11" font-weight="bold" lengthAdjust="spacing" textLength="98.0541" x="89.4429" y="235.2026">[&#12518;&#12540;&#12470;&#12540;&#12364;&#26410;&#30331;&#37682;]</text><g class="message" data-participant-1="Library" data-participant-2="User"><polygon fill="#181818" points="74.9999,257.2578,64.9999,261.2578,74.9999,265.2578,70.9999,261.2578" style="stroke:#181818;stroke-width:1;"/><line style="stroke:#181818;stroke-width:1;stroke-dasharray:2,2;" x1="68.9999" x2="303.5124" y1="261.2578" y2="261.2578"/><text fill="#000000" font-family="sans-serif" font-size="13" lengthAdjust="spacing" textLength="190.5124" x="80.9999" y="256.1919">&#12456;&#12521;&#12540;: &#12518;&#12540;&#12470;&#12540;&#30331;&#37682;&#12364;&#24517;&#35201;&#12391;&#12377;</text></g><line style="stroke:#000000;stroke-width:1;stroke-dasharray:2,2;" x1="10" x2="1037.2835" y1="270.2578" y2="270.2578"/><text fill="#000000" font-family="sans-serif" font-size="11" font-weight="bold" lengthAdjust="spacing" textLength="109.054" x="15" y="280.4683">[&#12518;&#12540;&#12470;&#12540;&#12364;&#30331;&#37682;&#28168;&#12415;]</text><g class="message" data-participant-1="Library" data-participant-2="UserObj"><polygon fill="#181818" points="452.0685,301.1953,462.0685,305.1953,452.0685,309.1953,456.0685,305.1953" style="stroke:#181818;stroke-width:1;"/><line style="stroke:#181818;stroke-width:1;" x1="304.5124" x2="458.0685" y1="305.1953" y2="305.1953"/><text fill="#000000" font-family="sans-serif" font-size="13" lengthAdjust="spacing" textLength="140.5562" x="311.5124" y="300.1294">isWithinBorrowLimit()</text></g><g class="message" data-participant-1="UserObj" data-participant-2="UserObj"><line style="stroke:#181818;stroke-width:1;" x1="474.0685" x2="516.0685" y1="334.3281" y2="334.3281"/><line style="stroke:#181818;stroke-width:1;" x1="516.0685" x2="516.0685" y1="334.3281" y2="347.3281"/><line style="stroke:#181818;stroke-width:1;" x1="475.0685" x2="516.0685" y1="347.3281" y2="347.3281"/><polygon fill="#181818" points="485.0685,343.3281,475.0685,347.3281,485.0685,351.3281,481.0685,347.3281" style="stroke:#181818;stroke-width:1;"/><text fill="#000000" font-family="sans-serif" font-size="13" lengthAdjust="spacing" textLength="165.585" x="481.0685" y="329.2622">getCurrentBorrowCount()</text></g><g class="message" data-participant-1="UserObj" data-participant-2="Library"><polygon fill="#181818" points="315.5124,372.4609,305.5124,376.4609,315.5124,380.4609,311.5124,376.4609" style="stroke:#181818;stroke-width:1;"/><line style="stroke:#181818;stroke-width:1;stroke-dasharray:2,2;" x1="309.5124" x2="468.0685" y1="376.4609" y2="376.4609"/><text fill="#000000" font-family="sans-serif" font-size="13" lengthAdjust="spacing" textLength="130.0002" x="321.5124" y="371.395">&#36024;&#20986;&#19978;&#38480;&#12481;&#12455;&#12483;&#12463;&#32080;&#26524;</text></g><path d="M20,391.4609 L84.4429,391.4609 L84.4429,398.5938 L74.4429,408.5938 L20,408.5938 L20,391.4609" fill="#EEEEEE" style="stroke:#000000;stroke-width:1.5;"/><rect fill="none" height="555" style="stroke:#000000;stroke-width:1.5;" width="1007.2835" x="20" y="391.4609"/><text fill="#000000" font-family="sans-serif" font-size="13" font-weight="bold" lengthAdjust="spacing" textLength="19.4429" x="35" y="404.5278">alt</text><text fill="#000000" font-family="sans-serif" font-size="11" font-weight="bold" lengthAdjust="spacing" textLength="120.0539" x="99.4429" y="403.6714">[&#36024;&#20986;&#19978;&#38480;&#12395;&#36948;&#12375;&#12390;&#12356;&#12427;]</text><g class="message" data-participant-1="Library" data-participant-2="User"><polygon fill="#181818" points="74.9999,440.8594,64.9999,444.8594,74.9999,448.8594,70.9999,444.8594" style="stroke:#181818;stroke-width:1;"/><line style="stroke:#181818;stroke-width:1;stroke-dasharray:2,2;" x1="68.9999" x2="303.5124" y1="444.8594" y2="444.8594"/><text fill="#000000" font-family="sans-serif" font-size="13" lengthAdjust="spacing" textLength="190.5124" x="80.9999" y="424.6606">&#12456;&#12521;&#12540;: &#36024;&#20986;&#19978;&#38480;&#12395;&#36948;&#12375;&#12390;&#12356;&#12414;&#12377;</text><text fill="#000000" font-family="sans-serif" font-size="13" lengthAdjust="spacing" textLength="131.5616" x="80.9999" y="439.7935">(&#29694;&#22312;&#12398;&#36024;&#20986;&#20874;&#25968;: X&#20874;)</text></g><line style="stroke:#000000;stroke-width:1;stroke-dasharray:2,2;" x1="20" x2="1027.2835" y1="453.8594" y2="453.8594"/><text fill="#000000" font-family="sans-serif" font-size="11" font-weight="bold" lengthAdjust="spacing" textLength="76.0542" x="25" y="464.0698">[&#36024;&#20986;&#19978;&#38480;&#20197;&#20869;]</text><g class="message" data-participant-1="Library" data-participant-2="Book"><polygon fill="#181818" points="651.6535,484.7969,661.6535,488.7969,651.6535,492.7969,655.6535,488.7969" style="stroke:#181818;stroke-width:1;"/><line style="stroke:#181818;stroke-width:1;" x1="304.5124" x2="657.6535" y1="488.7969" y2="488.7969"/><text fill="#000000" font-family="sans-serif" font-size="13" lengthAdjust="spacing" textLength="170.5552" x="311.5124" y="483.731">findAvailableBook(bookId)</text></g><g class="message" data-participant-1="Book" data-participant-2="Book"><line style="stroke:#181818;stroke-width:1;" x1="673.6535" x2="715.6535" y1="517.9297" y2="517.9297"/><line style="stroke:#181818;stroke-width:1;" x1="715.6535" x2="715.6535" y1="517.9297" y2="530.9297"/><line style="stroke:#181818;stroke-width:1;" x1="674.6535" x2="715.6535" y1="530.9297" y2="530.9297"/><polygon fill="#181818" points="684.6535,526.9297,674.6535,530.9297,684.6535,534.9297,680.6535,530.9297" style="stroke:#181818;stroke-width:1;"/><text fill="#000000" font-family="sans-serif" font-size="13" lengthAdjust="spacing" textLength="80.1328" x="680.6535" y="512.8638">isAvailable()</text></g><g class="message" data-participant-1="Book" data-participant-2="Library"><polygon fill="#181818" points="315.5124,556.0625,305.5124,560.0625,315.5124,564.0625,311.5124,560.0625" style="stroke:#181818;stroke-width:1;"/><line style="stroke:#181818;stroke-width:1;stroke-dasharray:2,2;" x1="309.5124" x2="667.6535" y1="560.0625" y2="560.0625"/><text fill="#000000" font-family="sans-serif" font-size="13" lengthAdjust="spacing" textLength="173.0563" x="321.5124" y="554.9966">Book&#12458;&#12502;&#12472;&#12455;&#12463;&#12488;&#12414;&#12383;&#12399;null</text></g><path d="M30,575.0625 L94.4429,575.0625 L94.4429,582.1953 L84.4429,592.1953 L30,592.1953 L30,575.0625" fill="#EEEEEE" style="stroke:#000000;stroke-width:1.5;"/><rect fill="none" height="364.3984" style="stroke:#000000;stroke-width:1.5;" width="987.2835" x="30" y="575.0625"/><text fill="#000000" font-family="sans-serif" font-size="13" font-weight="bold" lengthAdjust="spacing" textLength="19.4429" x="45" y="588.1294">alt</text><text fill="#000000" font-family="sans-serif" font-size="11" font-weight="bold" lengthAdjust="spacing" textLength="175.0535" x="109.4429" y="587.2729">[&#26412;&#12364;&#23384;&#22312;&#12375;&#12394;&#12356;&#12289;&#12414;&#12383;&#12399;&#36024;&#20986;&#19981;&#21487;]</text><g class="message" data-participant-1="Library" data-participant-2="User"><polygon fill="#181818" points="74.9999,609.3281,64.9999,613.3281,74.9999,617.3281,70.9999,613.3281" style="stroke:#181818;stroke-width:1;"/><line style="stroke:#181818;stroke-width:1;stroke-dasharray:2,2;" x1="68.9999" x2="303.5124" y1="613.3281" y2="613.3281"/><text fill="#000000" font-family="sans-serif" font-size="13" lengthAdjust="spacing" textLength="216.5125" x="80.9999" y="608.2622">&#12456;&#12521;&#12540;: &#12371;&#12398;&#26412;&#12399;&#29694;&#22312;&#36024;&#20986;&#12391;&#12365;&#12414;&#12379;&#12435;</text></g><line style="stroke:#000000;stroke-width:1;stroke-dasharray:2,2;" x1="30" x2="1017.2835" y1="622.3281" y2="622.3281"/><text fill="#000000" font-family="sans-serif" font-size="11" font-weight="bold" lengthAdjust="spacing" textLength="76.0542" x="35" y="632.5386">[&#26412;&#12364;&#36024;&#20986;&#21487;&#33021;]</text><g class="message" data-participant-1="Library" data-participant-2="LoanRecord"><polygon fill="#181818" points="823.2834,653.2656,833.2834,657.2656,823.2834,661.2656,827.2834,657.2656" style="stroke:#181818;stroke-width:1;"/><line style="stroke:#181818;stroke-width:1;" x1="304.5124" x2="829.2834" y1="657.2656" y2="657.2656"/><text fill="#000000" font-family="sans-serif" font-size="13" lengthAdjust="spacing" textLength="120.0024" x="311.5124" y="652.1997">create(user, book)</text></g><g class="message" data-participant-1="LoanRecord" data-participant-2="LoanRecord"><line style="stroke:#181818;stroke-width:1;" x1="845.2834" x2="887.2834" y1="686.3984" y2="686.3984"/><line style="stroke:#181818;stroke-width:1;" x1="887.2834" x2="887.2834" y1="686.3984" y2="699.3984"/><line style="stroke:#181818;stroke-width:1;" x1="846.2834" x2="887.2834" y1="699.3984" y2="699.3984"/><polygon fill="#181818" points="856.2834,695.3984,846.2834,699.3984,856.2834,703.3984,852.2834,699.3984" style="stroke:#181818;stroke-width:1;"/><text fill="#000000" font-family="sans-serif" font-size="13" lengthAdjust="spacing" textLength="143.0002" x="852.2834" y="681.3325">&#36024;&#20986;&#26085;&#12539;&#36820;&#21364;&#26399;&#38480;&#12434;&#35373;&#23450;</text></g><g class="message" data-participant-1="LoanRecord" data-participant-2="Library"><polygon fill="#181818" points="315.5124,724.5313,305.5124,728.5313,315.5124,732.5313,311.5124,728.5313" style="stroke:#181818;stroke-width:1;"/><line style="stroke:#181818;stroke-width:1;stroke-dasharray:2,2;" x1="309.5124" x2="839.2834" y1="728.5313" y2="728.5313"/><text fill="#000000" font-family="sans-serif" font-size="13" lengthAdjust="spacing" textLength="155.1305" x="321.5124" y="723.4653">LoanRecord&#12458;&#12502;&#12472;&#12455;&#12463;&#12488;</text></g><g class="message" data-participant-1="Library" data-participant-2="Book"><polygon fill="#181818" points="651.6535,753.6641,661.6535,757.6641,651.6535,761.6641,655.6535,757.6641" style="stroke:#181818;stroke-width:1;"/><line style="stroke:#181818;stroke-width:1;" x1="304.5124" x2="657.6535" y1="757.6641" y2="757.6641"/><text fill="#000000" font-family="sans-serif" font-size="13" lengthAdjust="spacing" textLength="121.71" x="311.5124" y="752.5981">markAsBorrowed()</text></g><g class="message" data-participant-1="Book" data-participant-2="Book"><line style="stroke:#181818;stroke-width:1;" x1="673.6535" x2="715.6535" y1="786.7969" y2="786.7969"/><line style="stroke:#181818;stroke-width:1;" x1="715.6535" x2="715.6535" y1="786.7969" y2="799.7969"/><line style="stroke:#181818;stroke-width:1;" x1="674.6535" x2="715.6535" y1="799.7969" y2="799.7969"/><polygon fill="#181818" points="684.6535,795.7969,674.6535,799.7969,684.6535,803.7969,680.6535,799.7969" style="stroke:#181818;stroke-width:1;"/><text fill="#000000" font-family="sans-serif" font-size="13" lengthAdjust="spacing" textLength="137.6299" x="680.6535" y="781.731">status = BORROWED</text></g><g class="message" data-participant-1="Book" data-participant-2="Library"><polygon fill="#181818" points="315.5124,824.9297,305.5124,828.9297,315.5124,832.9297,311.5124,828.9297" style="stroke:#181818;stroke-width:1;"/><line style="stroke:#181818;stroke-width:1;stroke-dasharray:2,2;" x1="309.5124" x2="667.6535" y1="828.9297" y2="828.9297"/><text fill="#000000" font-family="sans-serif" font-size="13" lengthAdjust="spacing" textLength="52.0001" x="321.5124" y="823.8638">&#26356;&#26032;&#23436;&#20102;</text></g><g class="message" data-participant-1="Library" data-participant-2="UserObj"><polygon fill="#181818" points="452.0685,854.0625,462.0685,858.0625,452.0685,862.0625,456.0685,858.0625" style="stroke:#181818;stroke-width:1;"/><line style="stroke:#181818;stroke-width:1;" x1="304.5124" x2="458.0685" y1="858.0625" y2="858.0625"/><text fill="#000000" font-family="sans-serif" font-size="13" lengthAdjust="spacing" textLength="91.0001" x="311.5124" y="852.9966">&#36024;&#20986;&#35352;&#37682;&#12434;&#36861;&#21152;</text></g><g class="message" data-participant-1="UserObj" data-participant-2="Library"><polygon fill="#181818" points="315.5124,883.1953,305.5124,887.1953,315.5124,891.1953,311.5124,887.1953" style="stroke:#181818;stroke-width:1;"/><line style="stroke:#181818;stroke-width:1;stroke-dasharray:2,2;" x1="309.5124" x2="468.0685" y1="887.1953" y2="887.1953"/><text fill="#000000" font-family="sans-serif" font-size="13" lengthAdjust="spacing" textLength="52.0001" x="321.5124" y="882.1294">&#26356;&#26032;&#23436;&#20102;</text></g><g class="message" data-participant-1="Library" data-participant-2="User"><polygon fill="#181818" points="74.9999,927.4609,64.9999,931.4609,74.9999,935.4609,70.9999,931.4609" style="stroke:#181818;stroke-width:1;"/><line style="stroke:#181818;stroke-width:1;stroke-dasharray:2,2;" x1="68.9999" x2="303.5124" y1="931.4609" y2="931.4609"/><text fill="#000000" font-family="sans-serif" font-size="13" lengthAdjust="spacing" textLength="52.0001" x="80.9999" y="911.2622">&#36024;&#20986;&#23436;&#20102;</text><text fill="#000000" font-family="sans-serif" font-size="13" lengthAdjust="spacing" textLength="154.2545" x="80.9999" y="926.395">(&#36820;&#21364;&#26399;&#38480;: YYYY-MM-DD)</text></g><!--SRC=[ZLLTJzDW5BxlhtZZrPQuFx144Zwy886Ga1WqyQRRgbPAIzeEunrlAqWc10B8Xrl42u4nXH54NK3OZpcqw_w5xqVRjMidDjdQdlUSvvppd8-Qigb8oArz1slJMJm0gmBM1x1-Wrq1km5MGn34egdfw86pSjBPhdkBIm-GQA0dXgGByw9koaLvNbHDSbxzuLPRtQzrTZuX5tHHVzkdae2OAhoEgv18sE68fit6JxoBblF-ogllTLSlk0jDLAUbegQN185YeTnGu3RVdr6cJ1J6ImzHWU2Ebx8qANb1DAKmKC5_e2X-P7dqGbPBzCKtZvW5mVjtb8iwfq927TWxOBN0EWQh2VQAK98IveAec0Zi8x3_WFMB_kDLjzRex5-JB0L4hZ0iFwuy0giEzWdHpSSikGsnTzfBtX46V0nudq54_0RPIeeXzVlb06vh1N0xxZh2Y6pCoEOhMHtHT5rxCo7FoMOcoxGJkL5XI4y4ugLaZfPrNL9D3ZAgbTK099LENlcxLgMxlm4sfeJQDk6qytF3_LphJp7gdWT6A8v1u6zTl0ru5_0Hu7UaEvZQlMJ_2mFV4hAVgvdE-grJgmC-uyhESiNzU9v7Jyb3DlIIKWygPZM9EhcxFdIMbvB13R7fuDqvl23AYbXG92hA1DqTc8H-s3W5KlhIGv6D42EJxTE9Le5AaatDCZy0t5JBYfAMOSnpBp1I4pgYf5jFznXZXCa6PN8HXv015slEUZEql7ycy1RXdu4tUJau3Xk8DGPU1Mih1ZYW8c5LUAX-JTURddsJ7izGP2dbKL6N22BR7NpnP6DMFPUzHHP33SNzm3mGT_SGx6kllUsiNRgr0zgLrgPNFtNEFWt4YHQq9q_PLOFOIGzr41kym-P4VNROuCCkbJ83M8WrIh9D3LCqomPwX4QcfgUdPXwFfUZ6FW3LItVdt3bRlRjQ7fHDmkMWFCBT5Vq8KRRRDqxbIte-qJqKNAdhxNyYJGExPoJyRcMmP3D5-oIFdf4hDpcP6nlhLKDIUL7fdVwIG_4N]--></g></svg>